<?xml version="1.0" encoding="UTF-8" standalone="no"?>
<!DOCTYPE svg PUBLIC "-//W3C//DTD SVG 1.1//EN"
 "http://www.w3.org/Graphics/SVG/1.1/DTD/svg11.dtd">
<!-- Generated by graphviz version 2.40.1 (20161225.0304)
 -->
<!-- Title: sales Pages: 1 -->
<svg width="186pt" height="216pt"
 viewBox="0.00 0.00 186.00 216.00" xmlns="http://www.w3.org/2000/svg" xmlns:xlink="http://www.w3.org/1999/xlink">
<g id="graph0" class="graph" transform="scale(1 1) rotate(0) translate(4 212)">
<title>sales</title>
<polygon fill="#ffffff" stroke="transparent" points="-4,4 -4,-212 182,-212 182,4 -4,4"/>
<!-- sales -->
<g id="node1" class="node">
<title>sales</title>
<g id="a_node1"><a xlink:href="../../tables/sales.html" xlink:title="sales" target="_top">
<polygon fill="#ffffff" stroke="transparent" points="8,-4 8,-204 170,-204 170,-4 8,-4"/>
<polygon fill="#f5f5f5" stroke="transparent" points="10,-179 10,-202 168,-202 168,-179 10,-179"/>
<polygon fill="none" stroke="#000000" points="10,-179 10,-202 168,-202 168,-179 10,-179"/>
<text text-anchor="start" x="15" y="-188.1" font-family="Helvetica,sans-Serif" font-weight="bold" font-size="11.00" fill="#000000">sales</text>
<text text-anchor="start" x="133.0437" y="-187.1" font-family="Helvetica,sans-Serif" font-size="11.00" fill="#000000">[table]</text>
<polygon fill="none" stroke="#000000" points="10,-157 10,-179 102,-179 102,-157 10,-157"/>
<text text-anchor="start" x="30" y="-164.1" font-family="Helvetica,sans-Serif" font-size="11.00" fill="#000000">order_id</text>
<polygon fill="none" stroke="#000000" points="102,-157 102,-179 168,-179 168,-157 102,-157"/>
<text text-anchor="start" x="105" y="-164.7" font-family="Helvetica,sans-Serif" font-size="11.00" fill="#000000">bigint[19]</text>
<polygon fill="none" stroke="#000000" points="10,-135 10,-157 102,-157 102,-135 10,-135"/>
<image xlink:href="../../images/foreignKeys.png" width="11px" height="12px" preserveAspectRatio="xMinYMin meet" x="15" y="-152"/>
<text text-anchor="start" x="30" y="-142.1" font-family="Helvetica,sans-Serif" font-size="11.00" fill="#000000">user_id</text>
<polygon fill="none" stroke="#000000" points="102,-135 102,-157 168,-157 168,-135 102,-135"/>
<text text-anchor="start" x="105" y="-142.7" font-family="Helvetica,sans-Serif" font-size="11.00" fill="#000000">int[10]</text>
<polygon fill="none" stroke="#000000" points="10,-113 10,-135 102,-135 102,-113 10,-113"/>
<image xlink:href="../../images/foreignKeys.png" width="11px" height="12px" preserveAspectRatio="xMinYMin meet" x="15" y="-130"/>
<text text-anchor="start" x="30" y="-120.1" font-family="Helvetica,sans-Serif" font-size="11.00" fill="#000000">product_id</text>
<polygon fill="none" stroke="#000000" points="102,-113 102,-135 168,-135 168,-113 102,-113"/>
<text text-anchor="start" x="105" y="-120.7" font-family="Helvetica,sans-Serif" font-size="11.00" fill="#000000">int[10]</text>
<polygon fill="none" stroke="#000000" points="10,-91 10,-113 102,-113 102,-91 10,-91"/>
<text text-anchor="start" x="30" y="-98.1" font-family="Helvetica,sans-Serif" font-size="11.00" fill="#000000">date_time</text>
<polygon fill="none" stroke="#000000" points="102,-91 102,-113 168,-113 168,-91 102,-91"/>
<text text-anchor="start" x="104.7401" y="-98.7" font-family="Helvetica,sans-Serif" font-size="11.00" fill="#000000">datetime[19]</text>
<polygon fill="none" stroke="#000000" points="10,-69 10,-91 102,-91 102,-69 10,-69"/>
<text text-anchor="start" x="30" y="-76.1" font-family="Helvetica,sans-Serif" font-size="11.00" fill="#000000">quantity</text>
<polygon fill="none" stroke="#000000" points="102,-69 102,-91 168,-91 168,-69 102,-69"/>
<text text-anchor="start" x="105" y="-76.7" font-family="Helvetica,sans-Serif" font-size="11.00" fill="#000000">int[10]</text>
<polygon fill="none" stroke="#000000" points="10,-47 10,-69 102,-69 102,-47 10,-47"/>
<text text-anchor="start" x="30" y="-54.1" font-family="Helvetica,sans-Serif" font-size="11.00" fill="#000000">revenue</text>
<polygon fill="none" stroke="#000000" points="102,-47 102,-69 168,-69 168,-47 102,-47"/>
<text text-anchor="start" x="105" y="-54.7" font-family="Helvetica,sans-Serif" font-size="11.00" fill="#000000">int[10]</text>
<polygon fill="none" stroke="#000000" points="10,-25 10,-47 102,-47 102,-25 10,-25"/>
<text text-anchor="start" x="30" y="-32.1" font-family="Helvetica,sans-Serif" font-size="11.00" fill="#000000">is_proper</text>
<polygon fill="none" stroke="#000000" points="102,-25 102,-47 168,-47 168,-25 102,-25"/>
<text text-anchor="start" x="105" y="-32.7" font-family="Helvetica,sans-Serif" font-size="11.00" fill="#000000">bit[0]</text>
<polygon fill="#ffffff" stroke="transparent" points="10,-6 10,-25 37,-25 37,-6 10,-6"/>
<polygon fill="none" stroke="#000000" points="10,-6 10,-25 37,-25 37,-6 10,-6"/>
<text text-anchor="start" x="13" y="-12.1" font-family="Helvetica,sans-Serif" font-size="11.00" fill="#000000">&lt; 0</text>
<polygon fill="#ffffff" stroke="transparent" points="37,-6 37,-25 102,-25 102,-6 37,-6"/>
<polygon fill="none" stroke="#000000" points="37,-6 37,-25 102,-25 102,-6 37,-6"/>
<text text-anchor="start" x="45.2089" y="-12.1" font-family="Helvetica,sans-Serif" font-size="11.00" fill="#000000">1,177 rows</text>
<polygon fill="#ffffff" stroke="transparent" points="102,-6 102,-25 168,-25 168,-6 102,-6"/>
<polygon fill="none" stroke="#000000" points="102,-6 102,-25 168,-25 168,-6 102,-6"/>
<text text-anchor="start" x="149.4053" y="-12.1" font-family="Helvetica,sans-Serif" font-size="11.00" fill="#000000">0 &gt;</text>
<polygon fill="none" stroke="#000000" stroke-width="2" points="9,-5 9,-203 169,-203 169,-5 9,-5"/>
</a>
</g>
</g>
</g>
</svg>
