<?xml version="1.0" encoding="UTF-8" standalone="no"?>
<!DOCTYPE svg PUBLIC "-//W3C//DTD SVG 1.1//EN"
 "http://www.w3.org/Graphics/SVG/1.1/DTD/svg11.dtd">
<!-- Generated by graphviz version 2.40.1 (20161225.0304)
 -->
<!-- Title: twoDegreesRelationshipsDiagramImplied Pages: 1 -->
<svg width="370pt" height="333pt"
 viewBox="0.00 0.00 370.00 332.70" xmlns="http://www.w3.org/2000/svg" xmlns:xlink="http://www.w3.org/1999/xlink">
<g id="graph0" class="graph" transform="scale(1 1) rotate(0) translate(4 328.7)">
<title>twoDegreesRelationshipsDiagramImplied</title>
<polygon fill="#ffffff" stroke="transparent" points="-4,4 -4,-328.7 366,-328.7 366,4 -4,4"/>
<text text-anchor="middle" x="72.4936" y="-7.3" font-family="Helvetica,sans-Serif" font-size="11.00" fill="#000000">Generated by SchemaSpy</text>
<!-- sales -->
<g id="node1" class="node">
<title>sales</title>
<g id="a_node1"><a xlink:href="../../tables/sales.html" xlink:title="sales" target="_top">
<polygon fill="#ffffff" stroke="transparent" points="250.5,-63.2 250.5,-168.2 342.5,-168.2 342.5,-63.2 250.5,-63.2"/>
<polygon fill="#f5f5f5" stroke="transparent" points="250.5,-144.7 250.5,-167.7 342.5,-167.7 342.5,-144.7 250.5,-144.7"/>
<polygon fill="none" stroke="#000000" points="250.5,-144.7 250.5,-167.7 342.5,-167.7 342.5,-144.7 250.5,-144.7"/>
<text text-anchor="start" x="255.5" y="-153.8" font-family="Helvetica,sans-Serif" font-weight="bold" font-size="11.00" fill="#000000">sales</text>
<text text-anchor="start" x="307.5437" y="-152.8" font-family="Helvetica,sans-Serif" font-size="11.00" fill="#000000">[table]</text>
<polygon fill="none" stroke="#000000" points="250.5,-122.7 250.5,-144.7 342.5,-144.7 342.5,-122.7 250.5,-122.7"/>
<image xlink:href="../../images/foreignKeys.png" width="11px" height="12px" preserveAspectRatio="xMinYMin meet" x="255.5" y="-139.7"/>
<text text-anchor="start" x="270.5" y="-129.8" font-family="Helvetica,sans-Serif" font-size="11.00" fill="#000000">user_id</text>
<polygon fill="none" stroke="#000000" points="250.5,-100.7 250.5,-122.7 342.5,-122.7 342.5,-100.7 250.5,-100.7"/>
<image xlink:href="../../images/foreignKeys.png" width="11px" height="12px" preserveAspectRatio="xMinYMin meet" x="255.5" y="-117.7"/>
<text text-anchor="start" x="270.5" y="-107.8" font-family="Helvetica,sans-Serif" font-size="11.00" fill="#000000">product_id</text>
<polygon fill="none" stroke="#000000" points="250.5,-81.7 250.5,-100.7 342.5,-100.7 342.5,-81.7 250.5,-81.7"/>
<text text-anchor="start" x="253.5" y="-87.8" font-family="Helvetica,sans-Serif" font-size="11.00" fill="#000000">...</text>
<polygon fill="#ffffff" stroke="transparent" points="250.5,-62.7 250.5,-81.7 271.5,-81.7 271.5,-62.7 250.5,-62.7"/>
<polygon fill="none" stroke="#000000" points="250.5,-62.7 250.5,-81.7 271.5,-81.7 271.5,-62.7 250.5,-62.7"/>
<text text-anchor="start" x="253.2027" y="-68.8" font-family="Helvetica,sans-Serif" font-size="11.00" fill="#000000">&lt; 2</text>
<polygon fill="#ffffff" stroke="transparent" points="271.5,-62.7 271.5,-81.7 330.5,-81.7 330.5,-62.7 271.5,-62.7"/>
<polygon fill="none" stroke="#000000" points="271.5,-62.7 271.5,-81.7 330.5,-81.7 330.5,-62.7 271.5,-62.7"/>
<text text-anchor="start" x="274.1045" y="-68.8" font-family="Helvetica,sans-Serif" font-size="11.00" fill="#000000">1,177 rows</text>
<polygon fill="#ffffff" stroke="transparent" points="330.5,-62.7 330.5,-81.7 342.5,-81.7 342.5,-62.7 330.5,-62.7"/>
<polygon fill="none" stroke="#000000" points="330.5,-62.7 330.5,-81.7 342.5,-81.7 342.5,-62.7 330.5,-62.7"/>
<text text-anchor="start" x="333.4431" y="-68.8" font-family="Helvetica,sans-Serif" font-size="11.00" fill="#000000"> &#160;</text>
</a>
</g>
</g>
<!-- products -->
<g id="node2" class="node">
<title>products</title>
<g id="a_node2"><a xlink:href="../../tables/products.html" xlink:title="products" target="_top">
<polygon fill="#ffffff" stroke="transparent" points="56.5,-38.2 56.5,-99.2 141.5,-99.2 141.5,-38.2 56.5,-38.2"/>
<polygon fill="#f5f5f5" stroke="transparent" points="57,-75.7 57,-98.7 142,-98.7 142,-75.7 57,-75.7"/>
<polygon fill="none" stroke="#000000" points="57,-75.7 57,-98.7 142,-98.7 142,-75.7 57,-75.7"/>
<text text-anchor="start" x="61.9108" y="-84.8" font-family="Helvetica,sans-Serif" font-weight="bold" font-size="11.00" fill="#000000">products</text>
<text text-anchor="start" x="107.5219" y="-83.8" font-family="Helvetica,sans-Serif" font-size="11.00" fill="#000000">[table]</text>
<polygon fill="none" stroke="#000000" points="57,-56.7 57,-75.7 142,-75.7 142,-56.7 57,-56.7"/>
<text text-anchor="start" x="60" y="-62.8" font-family="Helvetica,sans-Serif" font-size="11.00" fill="#000000">...</text>
<polygon fill="#ffffff" stroke="transparent" points="57,-37.7 57,-56.7 73,-56.7 73,-37.7 57,-37.7"/>
<polygon fill="none" stroke="#000000" points="57,-37.7 57,-56.7 73,-56.7 73,-37.7 57,-37.7"/>
<text text-anchor="start" x="60" y="-43.8" font-family="Helvetica,sans-Serif" font-size="11.00" fill="#000000"> &#160;</text>
<polygon fill="#ffffff" stroke="transparent" points="73,-37.7 73,-56.7 119,-56.7 119,-37.7 73,-37.7"/>
<polygon fill="none" stroke="#000000" points="73,-37.7 73,-56.7 119,-56.7 119,-37.7 73,-37.7"/>
<text text-anchor="start" x="77.4956" y="-43.8" font-family="Helvetica,sans-Serif" font-size="11.00" fill="#000000">15 rows</text>
<polygon fill="#ffffff" stroke="transparent" points="119,-37.7 119,-56.7 142,-56.7 142,-37.7 119,-37.7"/>
<polygon fill="none" stroke="#000000" points="119,-37.7 119,-56.7 142,-56.7 142,-37.7 119,-37.7"/>
<text text-anchor="start" x="123.4053" y="-43.8" font-family="Helvetica,sans-Serif" font-size="11.00" fill="#000000">1 &gt;</text>
</a>
</g>
</g>
<!-- sales&#45;&gt;products -->
<g id="edge1" class="edge">
<title>sales:w&#45;&gt;products:e</title>
<path fill="none" stroke="#000000" stroke-dasharray="5,2" d="M235.9444,-110.3729C196.8604,-102.8307 189.0575,-65.7 142,-65.7"/>
<polygon fill="#000000" stroke="#000000" points="242.533,-110.9736 250.1731,-115.2851 246.5165,-111.3368 250.5,-111.7 250.5,-111.7 250.5,-111.7 246.5165,-111.3368 250.8269,-108.1149 242.533,-110.9736 242.533,-110.9736"/>
<ellipse fill="none" stroke="#000000" cx="239.3463" cy="-110.683" rx="3.2" ry="3.2"/>
</g>
<!-- customers -->
<g id="node3" class="node">
<title>customers</title>
<g id="a_node3"><a xlink:href="../../tables/customers.html" xlink:title="customers" target="_top">
<polygon fill="#ffffff" stroke="transparent" points="8,-120.7 8,-320.7 190,-320.7 190,-120.7 8,-120.7"/>
<polygon fill="#f5f5f5" stroke="transparent" points="10,-295.7 10,-318.7 188,-318.7 188,-295.7 10,-295.7"/>
<polygon fill="none" stroke="#000000" points="10,-295.7 10,-318.7 188,-318.7 188,-295.7 10,-295.7"/>
<text text-anchor="start" x="15" y="-304.8" font-family="Helvetica,sans-Serif" font-weight="bold" font-size="11.00" fill="#000000">customers</text>
<text text-anchor="start" x="153.0437" y="-303.8" font-family="Helvetica,sans-Serif" font-size="11.00" fill="#000000">[table]</text>
<polygon fill="none" stroke="#000000" points="10,-273.7 10,-295.7 121,-295.7 121,-273.7 10,-273.7"/>
<image xlink:href="../../images/primaryKeys.png" width="11px" height="12px" preserveAspectRatio="xMinYMin meet" x="15" y="-290.7"/>
<text text-anchor="start" x="30" y="-280.8" font-family="Helvetica,sans-Serif" font-size="11.00" fill="#000000">user_id</text>
<polygon fill="none" stroke="#000000" points="121,-273.7 121,-295.7 188,-295.7 188,-273.7 121,-273.7"/>
<text text-anchor="start" x="124" y="-281.4" font-family="Helvetica,sans-Serif" font-size="11.00" fill="#000000">int[10]</text>
<polygon fill="none" stroke="#000000" points="10,-251.7 10,-273.7 121,-273.7 121,-251.7 10,-251.7"/>
<text text-anchor="start" x="30" y="-258.8" font-family="Helvetica,sans-Serif" font-size="11.00" fill="#000000">name</text>
<polygon fill="none" stroke="#000000" points="121,-251.7 121,-273.7 188,-273.7 188,-251.7 121,-251.7"/>
<text text-anchor="start" x="123.9365" y="-259.4" font-family="Helvetica,sans-Serif" font-size="11.00" fill="#000000">varchar[255]</text>
<polygon fill="none" stroke="#000000" points="10,-229.7 10,-251.7 121,-251.7 121,-229.7 10,-229.7"/>
<text text-anchor="start" x="30" y="-236.8" font-family="Helvetica,sans-Serif" font-size="11.00" fill="#000000">birthday</text>
<polygon fill="none" stroke="#000000" points="121,-229.7 121,-251.7 188,-251.7 188,-229.7 121,-229.7"/>
<text text-anchor="start" x="124" y="-237.4" font-family="Helvetica,sans-Serif" font-size="11.00" fill="#000000">date[10]</text>
<polygon fill="none" stroke="#000000" points="10,-207.7 10,-229.7 121,-229.7 121,-207.7 10,-207.7"/>
<text text-anchor="start" x="30" y="-214.8" font-family="Helvetica,sans-Serif" font-size="11.00" fill="#000000">gender</text>
<polygon fill="none" stroke="#000000" points="121,-207.7 121,-229.7 188,-229.7 188,-207.7 121,-207.7"/>
<text text-anchor="start" x="124" y="-215.4" font-family="Helvetica,sans-Serif" font-size="11.00" fill="#000000">int[10]</text>
<polygon fill="none" stroke="#000000" points="10,-185.7 10,-207.7 121,-207.7 121,-185.7 10,-185.7"/>
<text text-anchor="start" x="30" y="-192.8" font-family="Helvetica,sans-Serif" font-size="11.00" fill="#000000">prefecture</text>
<polygon fill="none" stroke="#000000" points="121,-185.7 121,-207.7 188,-207.7 188,-185.7 121,-185.7"/>
<text text-anchor="start" x="123.9365" y="-193.4" font-family="Helvetica,sans-Serif" font-size="11.00" fill="#000000">varchar[255]</text>
<polygon fill="none" stroke="#000000" points="10,-163.7 10,-185.7 121,-185.7 121,-163.7 10,-163.7"/>
<text text-anchor="start" x="30" y="-170.8" font-family="Helvetica,sans-Serif" font-size="11.00" fill="#000000">register_date</text>
<polygon fill="none" stroke="#000000" points="121,-163.7 121,-185.7 188,-185.7 188,-163.7 121,-163.7"/>
<text text-anchor="start" x="124" y="-171.4" font-family="Helvetica,sans-Serif" font-size="11.00" fill="#000000">date[10]</text>
<polygon fill="none" stroke="#000000" points="10,-141.7 10,-163.7 121,-163.7 121,-141.7 10,-141.7"/>
<text text-anchor="start" x="30" y="-148.8" font-family="Helvetica,sans-Serif" font-size="11.00" fill="#000000">is_premium</text>
<polygon fill="none" stroke="#000000" points="121,-141.7 121,-163.7 188,-163.7 188,-141.7 121,-141.7"/>
<text text-anchor="start" x="124" y="-149.4" font-family="Helvetica,sans-Serif" font-size="11.00" fill="#000000">bit[0]</text>
<polygon fill="#ffffff" stroke="transparent" points="10,-122.7 10,-141.7 51,-141.7 51,-122.7 10,-122.7"/>
<polygon fill="none" stroke="#000000" points="10,-122.7 10,-141.7 51,-141.7 51,-122.7 10,-122.7"/>
<text text-anchor="start" x="13" y="-128.8" font-family="Helvetica,sans-Serif" font-size="11.00" fill="#000000">&lt; 0</text>
<polygon fill="#ffffff" stroke="transparent" points="51,-122.7 51,-141.7 121,-141.7 121,-122.7 51,-122.7"/>
<polygon fill="none" stroke="#000000" points="51,-122.7 51,-141.7 121,-141.7 121,-122.7 51,-122.7"/>
<text text-anchor="start" x="73.3807" y="-128.8" font-family="Helvetica,sans-Serif" font-size="11.00" fill="#000000">497 rows</text>
<polygon fill="#ffffff" stroke="transparent" points="121,-122.7 121,-141.7 188,-141.7 188,-122.7 121,-122.7"/>
<polygon fill="none" stroke="#000000" points="121,-122.7 121,-141.7 188,-141.7 188,-122.7 121,-122.7"/>
<text text-anchor="start" x="169.4053" y="-128.8" font-family="Helvetica,sans-Serif" font-size="11.00" fill="#000000">2 &gt;</text>
<polygon fill="none" stroke="#000000" stroke-width="2" points="9,-121.7 9,-319.7 189,-319.7 189,-121.7 9,-121.7"/>
</a>
</g>
</g>
<!-- sales&#45;&gt;customers -->
<g id="edge2" class="edge">
<title>sales:w&#45;&gt;customers:e</title>
<path fill="none" stroke="#000000" stroke-dasharray="5,2" d="M236.1739,-136.3209C189.8509,-156.3721 254.9583,-284.7 188,-284.7"/>
<polygon fill="#000000" stroke="#000000" points="242.6306,-135.1397 251.1479,-137.2412 246.5653,-134.4199 250.5,-133.7 250.5,-133.7 250.5,-133.7 246.5653,-134.4199 249.8521,-130.1588 242.6306,-135.1397 242.6306,-135.1397"/>
<ellipse fill="none" stroke="#000000" cx="239.4828" cy="-135.7156" rx="3.2" ry="3.2"/>
</g>
<!-- web_log -->
<g id="node4" class="node">
<title>web_log</title>
<g id="a_node4"><a xlink:href="../../tables/web_log.html" xlink:title="web_log" target="_top">
<polygon fill="#ffffff" stroke="transparent" points="239,-236.2 239,-319.2 354,-319.2 354,-236.2 239,-236.2"/>
<polygon fill="#f5f5f5" stroke="transparent" points="239.5,-295.7 239.5,-318.7 354.5,-318.7 354.5,-295.7 239.5,-295.7"/>
<polygon fill="none" stroke="#000000" points="239.5,-295.7 239.5,-318.7 354.5,-318.7 354.5,-295.7 239.5,-295.7"/>
<text text-anchor="start" x="244.5" y="-304.8" font-family="Helvetica,sans-Serif" font-weight="bold" font-size="11.00" fill="#000000">web_log</text>
<text text-anchor="start" x="319.5437" y="-303.8" font-family="Helvetica,sans-Serif" font-size="11.00" fill="#000000">[table]</text>
<polygon fill="none" stroke="#000000" points="239.5,-273.7 239.5,-295.7 354.5,-295.7 354.5,-273.7 239.5,-273.7"/>
<image xlink:href="../../images/foreignKeys.png" width="11px" height="12px" preserveAspectRatio="xMinYMin meet" x="244.5" y="-290.7"/>
<text text-anchor="start" x="259.5" y="-280.8" font-family="Helvetica,sans-Serif" font-size="11.00" fill="#000000">user_id</text>
<polygon fill="none" stroke="#000000" points="239.5,-254.7 239.5,-273.7 354.5,-273.7 354.5,-254.7 239.5,-254.7"/>
<text text-anchor="start" x="242.5" y="-260.8" font-family="Helvetica,sans-Serif" font-size="11.00" fill="#000000">...</text>
<polygon fill="#ffffff" stroke="transparent" points="239.5,-235.7 239.5,-254.7 271.5,-254.7 271.5,-235.7 239.5,-235.7"/>
<polygon fill="none" stroke="#000000" points="239.5,-235.7 239.5,-254.7 271.5,-254.7 271.5,-235.7 239.5,-235.7"/>
<text text-anchor="start" x="242.5" y="-241.8" font-family="Helvetica,sans-Serif" font-size="11.00" fill="#000000">&lt; 1</text>
<polygon fill="#ffffff" stroke="transparent" points="271.5,-235.7 271.5,-254.7 336.5,-254.7 336.5,-235.7 271.5,-235.7"/>
<polygon fill="none" stroke="#000000" points="271.5,-235.7 271.5,-254.7 336.5,-254.7 336.5,-235.7 271.5,-235.7"/>
<text text-anchor="start" x="279.7089" y="-241.8" font-family="Helvetica,sans-Serif" font-size="11.00" fill="#000000">2,604 rows</text>
<polygon fill="#ffffff" stroke="transparent" points="336.5,-235.7 336.5,-254.7 354.5,-254.7 354.5,-235.7 336.5,-235.7"/>
<polygon fill="none" stroke="#000000" points="336.5,-235.7 336.5,-254.7 354.5,-254.7 354.5,-235.7 336.5,-235.7"/>
<text text-anchor="start" x="345.3862" y="-241.8" font-family="Helvetica,sans-Serif" font-size="11.00" fill="#000000"> &#160;</text>
</a>
</g>
</g>
<!-- web_log&#45;&gt;customers -->
<g id="edge3" class="edge">
<title>web_log:w&#45;&gt;customers:e</title>
<path fill="none" stroke="#000000" stroke-dasharray="5,2" d="M225.0156,-284.7C212.6771,-284.7 205.1667,-284.7 188,-284.7"/>
<polygon fill="#000000" stroke="#000000" points="231.5,-284.7001 239.5,-288.3 235.5,-284.7 239.5,-284.7 239.5,-284.7 239.5,-284.7 235.5,-284.7 239.5,-281.1 231.5,-284.7001 231.5,-284.7001"/>
<ellipse fill="none" stroke="#000000" cx="228.3" cy="-284.7001" rx="3.2" ry="3.2"/>
</g>
</g>
</svg>
