<?xml version="1.0" encoding="UTF-8" standalone="no"?>
<!DOCTYPE svg PUBLIC "-//W3C//DTD SVG 1.1//EN"
 "http://www.w3.org/Graphics/SVG/1.1/DTD/svg11.dtd">
<!-- Generated by graphviz version 2.40.1 (20161225.0304)
 -->
<!-- Title: oneDegreeRelationshipsDiagramImplied Pages: 1 -->
<svg width="370pt" height="312pt"
 viewBox="0.00 0.00 370.00 311.70" xmlns="http://www.w3.org/2000/svg" xmlns:xlink="http://www.w3.org/1999/xlink">
<g id="graph0" class="graph" transform="scale(1 1) rotate(0) translate(4 307.7)">
<title>oneDegreeRelationshipsDiagramImplied</title>
<polygon fill="#ffffff" stroke="transparent" points="-4,4 -4,-307.7 366,-307.7 366,4 -4,4"/>
<text text-anchor="middle" x="72.4936" y="-7.3" font-family="Helvetica,sans-Serif" font-size="11.00" fill="#000000">Generated by SchemaSpy</text>
<!-- sales -->
<g id="node1" class="node">
<title>sales</title>
<g id="a_node1"><a xlink:href="../../tables/sales.html" xlink:title="sales" target="_top">
<polygon fill="#ffffff" stroke="transparent" points="250.5,-194.7 250.5,-299.7 342.5,-299.7 342.5,-194.7 250.5,-194.7"/>
<polygon fill="#f5f5f5" stroke="transparent" points="250.5,-276.2 250.5,-299.2 342.5,-299.2 342.5,-276.2 250.5,-276.2"/>
<polygon fill="none" stroke="#000000" points="250.5,-276.2 250.5,-299.2 342.5,-299.2 342.5,-276.2 250.5,-276.2"/>
<text text-anchor="start" x="255.5" y="-285.3" font-family="Helvetica,sans-Serif" font-weight="bold" font-size="11.00" fill="#000000">sales</text>
<text text-anchor="start" x="307.5437" y="-284.3" font-family="Helvetica,sans-Serif" font-size="11.00" fill="#000000">[table]</text>
<polygon fill="none" stroke="#000000" points="250.5,-254.2 250.5,-276.2 342.5,-276.2 342.5,-254.2 250.5,-254.2"/>
<image xlink:href="../../images/foreignKeys.png" width="11px" height="12px" preserveAspectRatio="xMinYMin meet" x="255.5" y="-271.2"/>
<text text-anchor="start" x="270.5" y="-261.3" font-family="Helvetica,sans-Serif" font-size="11.00" fill="#000000">user_id</text>
<polygon fill="none" stroke="#000000" points="250.5,-232.2 250.5,-254.2 342.5,-254.2 342.5,-232.2 250.5,-232.2"/>
<image xlink:href="../../images/foreignKeys.png" width="11px" height="12px" preserveAspectRatio="xMinYMin meet" x="255.5" y="-249.2"/>
<text text-anchor="start" x="270.5" y="-239.3" font-family="Helvetica,sans-Serif" font-size="11.00" fill="#000000">product_id</text>
<polygon fill="none" stroke="#000000" points="250.5,-213.2 250.5,-232.2 342.5,-232.2 342.5,-213.2 250.5,-213.2"/>
<text text-anchor="start" x="253.5" y="-219.3" font-family="Helvetica,sans-Serif" font-size="11.00" fill="#000000">...</text>
<polygon fill="#ffffff" stroke="transparent" points="250.5,-194.2 250.5,-213.2 271.5,-213.2 271.5,-194.2 250.5,-194.2"/>
<polygon fill="none" stroke="#000000" points="250.5,-194.2 250.5,-213.2 271.5,-213.2 271.5,-194.2 250.5,-194.2"/>
<text text-anchor="start" x="253.2027" y="-200.3" font-family="Helvetica,sans-Serif" font-size="11.00" fill="#000000">&lt; 2</text>
<polygon fill="#ffffff" stroke="transparent" points="271.5,-194.2 271.5,-213.2 330.5,-213.2 330.5,-194.2 271.5,-194.2"/>
<polygon fill="none" stroke="#000000" points="271.5,-194.2 271.5,-213.2 330.5,-213.2 330.5,-194.2 271.5,-194.2"/>
<text text-anchor="start" x="274.1045" y="-200.3" font-family="Helvetica,sans-Serif" font-size="11.00" fill="#000000">1,177 rows</text>
<polygon fill="#ffffff" stroke="transparent" points="330.5,-194.2 330.5,-213.2 342.5,-213.2 342.5,-194.2 330.5,-194.2"/>
<polygon fill="none" stroke="#000000" points="330.5,-194.2 330.5,-213.2 342.5,-213.2 342.5,-194.2 330.5,-194.2"/>
<text text-anchor="start" x="333.4431" y="-200.3" font-family="Helvetica,sans-Serif" font-size="11.00" fill="#000000"> &#160;</text>
</a>
</g>
</g>
<!-- customers -->
<g id="node2" class="node">
<title>customers</title>
<g id="a_node2"><a xlink:href="../../tables/customers.html" xlink:title="customers" target="_top">
<polygon fill="#ffffff" stroke="transparent" points="8,-38.2 8,-238.2 190,-238.2 190,-38.2 8,-38.2"/>
<polygon fill="#f5f5f5" stroke="transparent" points="10,-213.2 10,-236.2 188,-236.2 188,-213.2 10,-213.2"/>
<polygon fill="none" stroke="#000000" points="10,-213.2 10,-236.2 188,-236.2 188,-213.2 10,-213.2"/>
<text text-anchor="start" x="15" y="-222.3" font-family="Helvetica,sans-Serif" font-weight="bold" font-size="11.00" fill="#000000">customers</text>
<text text-anchor="start" x="153.0437" y="-221.3" font-family="Helvetica,sans-Serif" font-size="11.00" fill="#000000">[table]</text>
<polygon fill="none" stroke="#000000" points="10,-191.2 10,-213.2 121,-213.2 121,-191.2 10,-191.2"/>
<image xlink:href="../../images/primaryKeys.png" width="11px" height="12px" preserveAspectRatio="xMinYMin meet" x="15" y="-208.2"/>
<text text-anchor="start" x="30" y="-198.3" font-family="Helvetica,sans-Serif" font-size="11.00" fill="#000000">user_id</text>
<polygon fill="none" stroke="#000000" points="121,-191.2 121,-213.2 188,-213.2 188,-191.2 121,-191.2"/>
<text text-anchor="start" x="124" y="-198.9" font-family="Helvetica,sans-Serif" font-size="11.00" fill="#000000">int[10]</text>
<polygon fill="none" stroke="#000000" points="10,-169.2 10,-191.2 121,-191.2 121,-169.2 10,-169.2"/>
<text text-anchor="start" x="30" y="-176.3" font-family="Helvetica,sans-Serif" font-size="11.00" fill="#000000">name</text>
<polygon fill="none" stroke="#000000" points="121,-169.2 121,-191.2 188,-191.2 188,-169.2 121,-169.2"/>
<text text-anchor="start" x="123.9365" y="-176.9" font-family="Helvetica,sans-Serif" font-size="11.00" fill="#000000">varchar[255]</text>
<polygon fill="none" stroke="#000000" points="10,-147.2 10,-169.2 121,-169.2 121,-147.2 10,-147.2"/>
<text text-anchor="start" x="30" y="-154.3" font-family="Helvetica,sans-Serif" font-size="11.00" fill="#000000">birthday</text>
<polygon fill="none" stroke="#000000" points="121,-147.2 121,-169.2 188,-169.2 188,-147.2 121,-147.2"/>
<text text-anchor="start" x="124" y="-154.9" font-family="Helvetica,sans-Serif" font-size="11.00" fill="#000000">date[10]</text>
<polygon fill="none" stroke="#000000" points="10,-125.2 10,-147.2 121,-147.2 121,-125.2 10,-125.2"/>
<text text-anchor="start" x="30" y="-132.3" font-family="Helvetica,sans-Serif" font-size="11.00" fill="#000000">gender</text>
<polygon fill="none" stroke="#000000" points="121,-125.2 121,-147.2 188,-147.2 188,-125.2 121,-125.2"/>
<text text-anchor="start" x="124" y="-132.9" font-family="Helvetica,sans-Serif" font-size="11.00" fill="#000000">int[10]</text>
<polygon fill="none" stroke="#000000" points="10,-103.2 10,-125.2 121,-125.2 121,-103.2 10,-103.2"/>
<text text-anchor="start" x="30" y="-110.3" font-family="Helvetica,sans-Serif" font-size="11.00" fill="#000000">prefecture</text>
<polygon fill="none" stroke="#000000" points="121,-103.2 121,-125.2 188,-125.2 188,-103.2 121,-103.2"/>
<text text-anchor="start" x="123.9365" y="-110.9" font-family="Helvetica,sans-Serif" font-size="11.00" fill="#000000">varchar[255]</text>
<polygon fill="none" stroke="#000000" points="10,-81.2 10,-103.2 121,-103.2 121,-81.2 10,-81.2"/>
<text text-anchor="start" x="30" y="-88.3" font-family="Helvetica,sans-Serif" font-size="11.00" fill="#000000">register_date</text>
<polygon fill="none" stroke="#000000" points="121,-81.2 121,-103.2 188,-103.2 188,-81.2 121,-81.2"/>
<text text-anchor="start" x="124" y="-88.9" font-family="Helvetica,sans-Serif" font-size="11.00" fill="#000000">date[10]</text>
<polygon fill="none" stroke="#000000" points="10,-59.2 10,-81.2 121,-81.2 121,-59.2 10,-59.2"/>
<text text-anchor="start" x="30" y="-66.3" font-family="Helvetica,sans-Serif" font-size="11.00" fill="#000000">is_premium</text>
<polygon fill="none" stroke="#000000" points="121,-59.2 121,-81.2 188,-81.2 188,-59.2 121,-59.2"/>
<text text-anchor="start" x="124" y="-66.9" font-family="Helvetica,sans-Serif" font-size="11.00" fill="#000000">bit[0]</text>
<polygon fill="#ffffff" stroke="transparent" points="10,-40.2 10,-59.2 51,-59.2 51,-40.2 10,-40.2"/>
<polygon fill="none" stroke="#000000" points="10,-40.2 10,-59.2 51,-59.2 51,-40.2 10,-40.2"/>
<text text-anchor="start" x="13" y="-46.3" font-family="Helvetica,sans-Serif" font-size="11.00" fill="#000000">&lt; 0</text>
<polygon fill="#ffffff" stroke="transparent" points="51,-40.2 51,-59.2 121,-59.2 121,-40.2 51,-40.2"/>
<polygon fill="none" stroke="#000000" points="51,-40.2 51,-59.2 121,-59.2 121,-40.2 51,-40.2"/>
<text text-anchor="start" x="73.3807" y="-46.3" font-family="Helvetica,sans-Serif" font-size="11.00" fill="#000000">497 rows</text>
<polygon fill="#ffffff" stroke="transparent" points="121,-40.2 121,-59.2 188,-59.2 188,-40.2 121,-40.2"/>
<polygon fill="none" stroke="#000000" points="121,-40.2 121,-59.2 188,-59.2 188,-40.2 121,-40.2"/>
<text text-anchor="start" x="169.4053" y="-46.3" font-family="Helvetica,sans-Serif" font-size="11.00" fill="#000000">2 &gt;</text>
<polygon fill="none" stroke="#000000" stroke-width="2" points="9,-39.2 9,-237.2 189,-237.2 189,-39.2 9,-39.2"/>
</a>
</g>
</g>
<!-- sales&#45;&gt;customers -->
<g id="edge1" class="edge">
<title>sales:w&#45;&gt;customers:e</title>
<path fill="none" stroke="#000000" stroke-dasharray="5,2" d="M236.2612,-261.4477C214.6923,-247.885 221.5866,-202.2 188,-202.2"/>
<polygon fill="#000000" stroke="#000000" points="242.7641,-263.1614 249.5826,-268.6812 246.632,-264.1807 250.5,-265.2 250.5,-265.2 250.5,-265.2 246.632,-264.1807 251.4174,-261.7188 242.7641,-263.1614 242.7641,-263.1614"/>
<ellipse fill="none" stroke="#000000" cx="239.6697" cy="-262.3459" rx="3.2" ry="3.2"/>
</g>
<!-- web_log -->
<g id="node3" class="node">
<title>web_log</title>
<g id="a_node3"><a xlink:href="../../tables/web_log.html" xlink:title="web_log" target="_top">
<polygon fill="#ffffff" stroke="transparent" points="239,-90.7 239,-173.7 354,-173.7 354,-90.7 239,-90.7"/>
<polygon fill="#f5f5f5" stroke="transparent" points="239.5,-150.2 239.5,-173.2 354.5,-173.2 354.5,-150.2 239.5,-150.2"/>
<polygon fill="none" stroke="#000000" points="239.5,-150.2 239.5,-173.2 354.5,-173.2 354.5,-150.2 239.5,-150.2"/>
<text text-anchor="start" x="244.5" y="-159.3" font-family="Helvetica,sans-Serif" font-weight="bold" font-size="11.00" fill="#000000">web_log</text>
<text text-anchor="start" x="319.5437" y="-158.3" font-family="Helvetica,sans-Serif" font-size="11.00" fill="#000000">[table]</text>
<polygon fill="none" stroke="#000000" points="239.5,-128.2 239.5,-150.2 354.5,-150.2 354.5,-128.2 239.5,-128.2"/>
<image xlink:href="../../images/foreignKeys.png" width="11px" height="12px" preserveAspectRatio="xMinYMin meet" x="244.5" y="-145.2"/>
<text text-anchor="start" x="259.5" y="-135.3" font-family="Helvetica,sans-Serif" font-size="11.00" fill="#000000">user_id</text>
<polygon fill="none" stroke="#000000" points="239.5,-109.2 239.5,-128.2 354.5,-128.2 354.5,-109.2 239.5,-109.2"/>
<text text-anchor="start" x="242.5" y="-115.3" font-family="Helvetica,sans-Serif" font-size="11.00" fill="#000000">...</text>
<polygon fill="#ffffff" stroke="transparent" points="239.5,-90.2 239.5,-109.2 271.5,-109.2 271.5,-90.2 239.5,-90.2"/>
<polygon fill="none" stroke="#000000" points="239.5,-90.2 239.5,-109.2 271.5,-109.2 271.5,-90.2 239.5,-90.2"/>
<text text-anchor="start" x="242.5" y="-96.3" font-family="Helvetica,sans-Serif" font-size="11.00" fill="#000000">&lt; 1</text>
<polygon fill="#ffffff" stroke="transparent" points="271.5,-90.2 271.5,-109.2 336.5,-109.2 336.5,-90.2 271.5,-90.2"/>
<polygon fill="none" stroke="#000000" points="271.5,-90.2 271.5,-109.2 336.5,-109.2 336.5,-90.2 271.5,-90.2"/>
<text text-anchor="start" x="279.7089" y="-96.3" font-family="Helvetica,sans-Serif" font-size="11.00" fill="#000000">2,604 rows</text>
<polygon fill="#ffffff" stroke="transparent" points="336.5,-90.2 336.5,-109.2 354.5,-109.2 354.5,-90.2 336.5,-90.2"/>
<polygon fill="none" stroke="#000000" points="336.5,-90.2 336.5,-109.2 354.5,-109.2 354.5,-90.2 336.5,-90.2"/>
<text text-anchor="start" x="345.3862" y="-96.3" font-family="Helvetica,sans-Serif" font-size="11.00" fill="#000000"> &#160;</text>
</a>
</g>
</g>
<!-- web_log&#45;&gt;customers -->
<g id="edge2" class="edge">
<title>web_log:w&#45;&gt;customers:e</title>
<path fill="none" stroke="#000000" stroke-dasharray="5,2" d="M225.799,-143.7308C208.6358,-158.1761 218.2316,-202.2 188,-202.2"/>
<polygon fill="#000000" stroke="#000000" points="231.9045,-141.7118 240.6303,-142.618 235.7023,-140.4559 239.5,-139.2 239.5,-139.2 239.5,-139.2 235.7023,-140.4559 238.3697,-135.782 231.9045,-141.7118 231.9045,-141.7118"/>
<ellipse fill="none" stroke="#000000" cx="228.8663" cy="-142.7165" rx="3.2" ry="3.2"/>
</g>
</g>
</svg>
