<?xml version="1.0" encoding="UTF-8" standalone="no"?>
<!DOCTYPE svg PUBLIC "-//W3C//DTD SVG 1.1//EN"
 "http://www.w3.org/Graphics/SVG/1.1/DTD/svg11.dtd">
<!-- Generated by graphviz version 2.40.1 (20161225.0304)
 -->
<!-- Title: oneDegreeRelationshipsDiagramImplied Pages: 1 -->
<svg width="374pt" height="268pt"
 viewBox="0.00 0.00 374.00 267.70" xmlns="http://www.w3.org/2000/svg" xmlns:xlink="http://www.w3.org/1999/xlink">
<g id="graph0" class="graph" transform="scale(1 1) rotate(0) translate(4 263.7)">
<title>oneDegreeRelationshipsDiagramImplied</title>
<polygon fill="#ffffff" stroke="transparent" points="-4,4 -4,-263.7 370,-263.7 370,4 -4,4"/>
<text text-anchor="middle" x="72.4936" y="-7.3" font-family="Helvetica,sans-Serif" font-size="11.00" fill="#000000">Generated by SchemaSpy</text>
<!-- sales -->
<g id="node1" class="node">
<title>sales</title>
<g id="a_node1"><a xlink:href="../../tables/sales.html" xlink:title="sales" target="_top">
<polygon fill="#ffffff" stroke="transparent" points="196,-38.2 196,-238.2 358,-238.2 358,-38.2 196,-38.2"/>
<polygon fill="#f5f5f5" stroke="transparent" points="198,-213.2 198,-236.2 356,-236.2 356,-213.2 198,-213.2"/>
<polygon fill="none" stroke="#000000" points="198,-213.2 198,-236.2 356,-236.2 356,-213.2 198,-213.2"/>
<text text-anchor="start" x="203" y="-222.3" font-family="Helvetica,sans-Serif" font-weight="bold" font-size="11.00" fill="#000000">sales</text>
<text text-anchor="start" x="321.0437" y="-221.3" font-family="Helvetica,sans-Serif" font-size="11.00" fill="#000000">[table]</text>
<polygon fill="none" stroke="#000000" points="198,-191.2 198,-213.2 290,-213.2 290,-191.2 198,-191.2"/>
<text text-anchor="start" x="218" y="-198.3" font-family="Helvetica,sans-Serif" font-size="11.00" fill="#000000">order_id</text>
<polygon fill="none" stroke="#000000" points="290,-191.2 290,-213.2 356,-213.2 356,-191.2 290,-191.2"/>
<text text-anchor="start" x="293" y="-198.9" font-family="Helvetica,sans-Serif" font-size="11.00" fill="#000000">bigint[19]</text>
<polygon fill="none" stroke="#000000" points="198,-169.2 198,-191.2 290,-191.2 290,-169.2 198,-169.2"/>
<image xlink:href="../../images/foreignKeys.png" width="11px" height="12px" preserveAspectRatio="xMinYMin meet" x="203" y="-186.2"/>
<text text-anchor="start" x="218" y="-176.3" font-family="Helvetica,sans-Serif" font-size="11.00" fill="#000000">user_id</text>
<polygon fill="none" stroke="#000000" points="290,-169.2 290,-191.2 356,-191.2 356,-169.2 290,-169.2"/>
<text text-anchor="start" x="293" y="-176.9" font-family="Helvetica,sans-Serif" font-size="11.00" fill="#000000">int[10]</text>
<polygon fill="none" stroke="#000000" points="198,-147.2 198,-169.2 290,-169.2 290,-147.2 198,-147.2"/>
<image xlink:href="../../images/foreignKeys.png" width="11px" height="12px" preserveAspectRatio="xMinYMin meet" x="203" y="-164.2"/>
<text text-anchor="start" x="218" y="-154.3" font-family="Helvetica,sans-Serif" font-size="11.00" fill="#000000">product_id</text>
<polygon fill="none" stroke="#000000" points="290,-147.2 290,-169.2 356,-169.2 356,-147.2 290,-147.2"/>
<text text-anchor="start" x="293" y="-154.9" font-family="Helvetica,sans-Serif" font-size="11.00" fill="#000000">int[10]</text>
<polygon fill="none" stroke="#000000" points="198,-125.2 198,-147.2 290,-147.2 290,-125.2 198,-125.2"/>
<text text-anchor="start" x="218" y="-132.3" font-family="Helvetica,sans-Serif" font-size="11.00" fill="#000000">date_time</text>
<polygon fill="none" stroke="#000000" points="290,-125.2 290,-147.2 356,-147.2 356,-125.2 290,-125.2"/>
<text text-anchor="start" x="292.7401" y="-132.9" font-family="Helvetica,sans-Serif" font-size="11.00" fill="#000000">datetime[19]</text>
<polygon fill="none" stroke="#000000" points="198,-103.2 198,-125.2 290,-125.2 290,-103.2 198,-103.2"/>
<text text-anchor="start" x="218" y="-110.3" font-family="Helvetica,sans-Serif" font-size="11.00" fill="#000000">quantity</text>
<polygon fill="none" stroke="#000000" points="290,-103.2 290,-125.2 356,-125.2 356,-103.2 290,-103.2"/>
<text text-anchor="start" x="293" y="-110.9" font-family="Helvetica,sans-Serif" font-size="11.00" fill="#000000">int[10]</text>
<polygon fill="none" stroke="#000000" points="198,-81.2 198,-103.2 290,-103.2 290,-81.2 198,-81.2"/>
<text text-anchor="start" x="218" y="-88.3" font-family="Helvetica,sans-Serif" font-size="11.00" fill="#000000">revenue</text>
<polygon fill="none" stroke="#000000" points="290,-81.2 290,-103.2 356,-103.2 356,-81.2 290,-81.2"/>
<text text-anchor="start" x="293" y="-88.9" font-family="Helvetica,sans-Serif" font-size="11.00" fill="#000000">int[10]</text>
<polygon fill="none" stroke="#000000" points="198,-59.2 198,-81.2 290,-81.2 290,-59.2 198,-59.2"/>
<text text-anchor="start" x="218" y="-66.3" font-family="Helvetica,sans-Serif" font-size="11.00" fill="#000000">is_proper</text>
<polygon fill="none" stroke="#000000" points="290,-59.2 290,-81.2 356,-81.2 356,-59.2 290,-59.2"/>
<text text-anchor="start" x="293" y="-66.9" font-family="Helvetica,sans-Serif" font-size="11.00" fill="#000000">bit[0]</text>
<polygon fill="#ffffff" stroke="transparent" points="198,-40.2 198,-59.2 225,-59.2 225,-40.2 198,-40.2"/>
<polygon fill="none" stroke="#000000" points="198,-40.2 198,-59.2 225,-59.2 225,-40.2 198,-40.2"/>
<text text-anchor="start" x="201" y="-46.3" font-family="Helvetica,sans-Serif" font-size="11.00" fill="#000000">&lt; 2</text>
<polygon fill="#ffffff" stroke="transparent" points="225,-40.2 225,-59.2 290,-59.2 290,-40.2 225,-40.2"/>
<polygon fill="none" stroke="#000000" points="225,-40.2 225,-59.2 290,-59.2 290,-40.2 225,-40.2"/>
<text text-anchor="start" x="233.2089" y="-46.3" font-family="Helvetica,sans-Serif" font-size="11.00" fill="#000000">1,177 rows</text>
<polygon fill="#ffffff" stroke="transparent" points="290,-40.2 290,-59.2 356,-59.2 356,-40.2 290,-40.2"/>
<polygon fill="none" stroke="#000000" points="290,-40.2 290,-59.2 356,-59.2 356,-40.2 290,-40.2"/>
<text text-anchor="start" x="337.4053" y="-46.3" font-family="Helvetica,sans-Serif" font-size="11.00" fill="#000000">0 &gt;</text>
<polygon fill="none" stroke="#000000" stroke-width="2" points="197,-39.2 197,-237.2 357,-237.2 357,-39.2 197,-39.2"/>
</a>
</g>
</g>
<!-- products -->
<g id="node2" class="node">
<title>products</title>
<g id="a_node2"><a xlink:href="../../tables/products.html" xlink:title="products" target="_top">
<polygon fill="#ffffff" stroke="transparent" points="8,-68.7 8,-151.7 147,-151.7 147,-68.7 8,-68.7"/>
<polygon fill="#f5f5f5" stroke="transparent" points="8.5,-128.2 8.5,-151.2 147.5,-151.2 147.5,-128.2 8.5,-128.2"/>
<polygon fill="none" stroke="#000000" points="8.5,-128.2 8.5,-151.2 147.5,-151.2 147.5,-128.2 8.5,-128.2"/>
<text text-anchor="start" x="13.5" y="-137.3" font-family="Helvetica,sans-Serif" font-weight="bold" font-size="11.00" fill="#000000">products</text>
<text text-anchor="start" x="112.5437" y="-136.3" font-family="Helvetica,sans-Serif" font-size="11.00" fill="#000000">[table]</text>
<polygon fill="none" stroke="#000000" points="8.5,-106.2 8.5,-128.2 147.5,-128.2 147.5,-106.2 8.5,-106.2"/>
<image xlink:href="../../images/primaryKeys.png" width="11px" height="12px" preserveAspectRatio="xMinYMin meet" x="13.5" y="-123.2"/>
<text text-anchor="start" x="28.5" y="-113.3" font-family="Helvetica,sans-Serif" font-size="11.00" fill="#000000">product_id</text>
<polygon fill="none" stroke="#000000" points="8.5,-87.2 8.5,-106.2 147.5,-106.2 147.5,-87.2 8.5,-87.2"/>
<text text-anchor="start" x="11.5" y="-93.3" font-family="Helvetica,sans-Serif" font-size="11.00" fill="#000000">...</text>
<polygon fill="#ffffff" stroke="transparent" points="8.5,-68.2 8.5,-87.2 51.5,-87.2 51.5,-68.2 8.5,-68.2"/>
<polygon fill="none" stroke="#000000" points="8.5,-68.2 8.5,-87.2 51.5,-87.2 51.5,-68.2 8.5,-68.2"/>
<text text-anchor="start" x="11.5" y="-74.3" font-family="Helvetica,sans-Serif" font-size="11.00" fill="#000000"> &#160;</text>
<polygon fill="#ffffff" stroke="transparent" points="51.5,-68.2 51.5,-87.2 110.5,-87.2 110.5,-68.2 51.5,-68.2"/>
<polygon fill="none" stroke="#000000" points="51.5,-68.2 51.5,-87.2 110.5,-87.2 110.5,-68.2 51.5,-68.2"/>
<text text-anchor="start" x="68.9956" y="-74.3" font-family="Helvetica,sans-Serif" font-size="11.00" fill="#000000">15 rows</text>
<polygon fill="#ffffff" stroke="transparent" points="110.5,-68.2 110.5,-87.2 147.5,-87.2 147.5,-68.2 110.5,-68.2"/>
<polygon fill="none" stroke="#000000" points="110.5,-68.2 110.5,-87.2 147.5,-87.2 147.5,-68.2 110.5,-68.2"/>
<text text-anchor="start" x="128.9053" y="-74.3" font-family="Helvetica,sans-Serif" font-size="11.00" fill="#000000">1 &gt;</text>
</a>
</g>
</g>
<!-- sales&#45;&gt;products -->
<g id="edge1" class="edge">
<title>sales:w&#45;&gt;products:e</title>
<path fill="none" stroke="#000000" stroke-dasharray="5,2" d="M184.2601,-153.8123C170.5688,-143.2354 170.5379,-117.2 147.5,-117.2"/>
<polygon fill="#000000" stroke="#000000" points="190.3792,-155.7663 196.9048,-161.6294 194.1896,-156.9832 198,-158.2 198,-158.2 198,-158.2 194.1896,-156.9832 199.0952,-154.7706 190.3792,-155.7663 190.3792,-155.7663"/>
<ellipse fill="none" stroke="#000000" cx="187.3308" cy="-154.7928" rx="3.2" ry="3.2"/>
</g>
<!-- customers -->
<g id="node3" class="node">
<title>customers</title>
<g id="a_node3"><a xlink:href="../../tables/customers.html" xlink:title="customers" target="_top">
<polygon fill="#ffffff" stroke="transparent" points="22,-172.7 22,-255.7 133,-255.7 133,-172.7 22,-172.7"/>
<polygon fill="#f5f5f5" stroke="transparent" points="22.5,-232.2 22.5,-255.2 133.5,-255.2 133.5,-232.2 22.5,-232.2"/>
<polygon fill="none" stroke="#000000" points="22.5,-232.2 22.5,-255.2 133.5,-255.2 133.5,-232.2 22.5,-232.2"/>
<text text-anchor="start" x="27.5" y="-241.3" font-family="Helvetica,sans-Serif" font-weight="bold" font-size="11.00" fill="#000000">customers</text>
<text text-anchor="start" x="98.5437" y="-240.3" font-family="Helvetica,sans-Serif" font-size="11.00" fill="#000000">[table]</text>
<polygon fill="none" stroke="#000000" points="22.5,-210.2 22.5,-232.2 133.5,-232.2 133.5,-210.2 22.5,-210.2"/>
<image xlink:href="../../images/primaryKeys.png" width="11px" height="12px" preserveAspectRatio="xMinYMin meet" x="27.5" y="-227.2"/>
<text text-anchor="start" x="42.5" y="-217.3" font-family="Helvetica,sans-Serif" font-size="11.00" fill="#000000">user_id</text>
<polygon fill="none" stroke="#000000" points="22.5,-191.2 22.5,-210.2 133.5,-210.2 133.5,-191.2 22.5,-191.2"/>
<text text-anchor="start" x="25.5" y="-197.3" font-family="Helvetica,sans-Serif" font-size="11.00" fill="#000000">...</text>
<polygon fill="#ffffff" stroke="transparent" points="22.5,-172.2 22.5,-191.2 48.5,-191.2 48.5,-172.2 22.5,-172.2"/>
<polygon fill="none" stroke="#000000" points="22.5,-172.2 22.5,-191.2 48.5,-191.2 48.5,-172.2 22.5,-172.2"/>
<text text-anchor="start" x="25.5" y="-178.3" font-family="Helvetica,sans-Serif" font-size="11.00" fill="#000000"> &#160;</text>
<polygon fill="#ffffff" stroke="transparent" points="48.5,-172.2 48.5,-191.2 105.5,-191.2 105.5,-172.2 48.5,-172.2"/>
<polygon fill="none" stroke="#000000" points="48.5,-172.2 48.5,-191.2 105.5,-191.2 105.5,-172.2 48.5,-172.2"/>
<text text-anchor="start" x="57.8807" y="-178.3" font-family="Helvetica,sans-Serif" font-size="11.00" fill="#000000">497 rows</text>
<polygon fill="#ffffff" stroke="transparent" points="105.5,-172.2 105.5,-191.2 133.5,-191.2 133.5,-172.2 105.5,-172.2"/>
<polygon fill="none" stroke="#000000" points="105.5,-172.2 105.5,-191.2 133.5,-191.2 133.5,-172.2 105.5,-172.2"/>
<text text-anchor="start" x="114.9053" y="-178.3" font-family="Helvetica,sans-Serif" font-size="11.00" fill="#000000">2 &gt;</text>
</a>
</g>
</g>
<!-- sales&#45;&gt;customers -->
<g id="edge2" class="edge">
<title>sales:w&#45;&gt;customers:e</title>
<path fill="none" stroke="#000000" stroke-dasharray="5,2" d="M183.6947,-183.2817C164.131,-192.8167 161.7625,-221.2 133.5,-221.2"/>
<polygon fill="#000000" stroke="#000000" points="190.1794,-181.8848 198.7581,-183.7193 194.0897,-181.0424 198,-180.2 198,-180.2 198,-180.2 194.0897,-181.0424 197.2419,-176.6807 190.1794,-181.8848 190.1794,-181.8848"/>
<ellipse fill="none" stroke="#000000" cx="187.0512" cy="-182.5587" rx="3.2" ry="3.2"/>
</g>
</g>
</svg>
