<?xml version="1.0" encoding="UTF-8" standalone="no"?>
<!DOCTYPE svg PUBLIC "-//W3C//DTD SVG 1.1//EN"
 "http://www.w3.org/Graphics/SVG/1.1/DTD/svg11.dtd">
<!-- Generated by graphviz version 2.40.1 (20161225.0304)
 -->
<!-- Title: twoDegreesRelationshipsDiagramImplied Pages: 1 -->
<svg width="374pt" height="333pt"
 viewBox="0.00 0.00 374.00 332.70" xmlns="http://www.w3.org/2000/svg" xmlns:xlink="http://www.w3.org/1999/xlink">
<g id="graph0" class="graph" transform="scale(1 1) rotate(0) translate(4 328.7)">
<title>twoDegreesRelationshipsDiagramImplied</title>
<polygon fill="#ffffff" stroke="transparent" points="-4,4 -4,-328.7 370,-328.7 370,4 -4,4"/>
<text text-anchor="middle" x="72.4936" y="-7.3" font-family="Helvetica,sans-Serif" font-size="11.00" fill="#000000">Generated by SchemaSpy</text>
<!-- sales -->
<g id="node1" class="node">
<title>sales</title>
<g id="a_node1"><a xlink:href="../../tables/sales.html" xlink:title="sales" target="_top">
<polygon fill="#ffffff" stroke="transparent" points="196,-38.2 196,-238.2 358,-238.2 358,-38.2 196,-38.2"/>
<polygon fill="#f5f5f5" stroke="transparent" points="198,-213.2 198,-236.2 356,-236.2 356,-213.2 198,-213.2"/>
<polygon fill="none" stroke="#000000" points="198,-213.2 198,-236.2 356,-236.2 356,-213.2 198,-213.2"/>
<text text-anchor="start" x="203" y="-222.3" font-family="Helvetica,sans-Serif" font-weight="bold" font-size="11.00" fill="#000000">sales</text>
<text text-anchor="start" x="321.0437" y="-221.3" font-family="Helvetica,sans-Serif" font-size="11.00" fill="#000000">[table]</text>
<polygon fill="none" stroke="#000000" points="198,-191.2 198,-213.2 290,-213.2 290,-191.2 198,-191.2"/>
<text text-anchor="start" x="218" y="-198.3" font-family="Helvetica,sans-Serif" font-size="11.00" fill="#000000">order_id</text>
<polygon fill="none" stroke="#000000" points="290,-191.2 290,-213.2 356,-213.2 356,-191.2 290,-191.2"/>
<text text-anchor="start" x="293" y="-198.9" font-family="Helvetica,sans-Serif" font-size="11.00" fill="#000000">bigint[19]</text>
<polygon fill="none" stroke="#000000" points="198,-169.2 198,-191.2 290,-191.2 290,-169.2 198,-169.2"/>
<image xlink:href="../../images/foreignKeys.png" width="11px" height="12px" preserveAspectRatio="xMinYMin meet" x="203" y="-186.2"/>
<text text-anchor="start" x="218" y="-176.3" font-family="Helvetica,sans-Serif" font-size="11.00" fill="#000000">user_id</text>
<polygon fill="none" stroke="#000000" points="290,-169.2 290,-191.2 356,-191.2 356,-169.2 290,-169.2"/>
<text text-anchor="start" x="293" y="-176.9" font-family="Helvetica,sans-Serif" font-size="11.00" fill="#000000">int[10]</text>
<polygon fill="none" stroke="#000000" points="198,-147.2 198,-169.2 290,-169.2 290,-147.2 198,-147.2"/>
<image xlink:href="../../images/foreignKeys.png" width="11px" height="12px" preserveAspectRatio="xMinYMin meet" x="203" y="-164.2"/>
<text text-anchor="start" x="218" y="-154.3" font-family="Helvetica,sans-Serif" font-size="11.00" fill="#000000">product_id</text>
<polygon fill="none" stroke="#000000" points="290,-147.2 290,-169.2 356,-169.2 356,-147.2 290,-147.2"/>
<text text-anchor="start" x="293" y="-154.9" font-family="Helvetica,sans-Serif" font-size="11.00" fill="#000000">int[10]</text>
<polygon fill="none" stroke="#000000" points="198,-125.2 198,-147.2 290,-147.2 290,-125.2 198,-125.2"/>
<text text-anchor="start" x="218" y="-132.3" font-family="Helvetica,sans-Serif" font-size="11.00" fill="#000000">date_time</text>
<polygon fill="none" stroke="#000000" points="290,-125.2 290,-147.2 356,-147.2 356,-125.2 290,-125.2"/>
<text text-anchor="start" x="292.7401" y="-132.9" font-family="Helvetica,sans-Serif" font-size="11.00" fill="#000000">datetime[19]</text>
<polygon fill="none" stroke="#000000" points="198,-103.2 198,-125.2 290,-125.2 290,-103.2 198,-103.2"/>
<text text-anchor="start" x="218" y="-110.3" font-family="Helvetica,sans-Serif" font-size="11.00" fill="#000000">quantity</text>
<polygon fill="none" stroke="#000000" points="290,-103.2 290,-125.2 356,-125.2 356,-103.2 290,-103.2"/>
<text text-anchor="start" x="293" y="-110.9" font-family="Helvetica,sans-Serif" font-size="11.00" fill="#000000">int[10]</text>
<polygon fill="none" stroke="#000000" points="198,-81.2 198,-103.2 290,-103.2 290,-81.2 198,-81.2"/>
<text text-anchor="start" x="218" y="-88.3" font-family="Helvetica,sans-Serif" font-size="11.00" fill="#000000">revenue</text>
<polygon fill="none" stroke="#000000" points="290,-81.2 290,-103.2 356,-103.2 356,-81.2 290,-81.2"/>
<text text-anchor="start" x="293" y="-88.9" font-family="Helvetica,sans-Serif" font-size="11.00" fill="#000000">int[10]</text>
<polygon fill="none" stroke="#000000" points="198,-59.2 198,-81.2 290,-81.2 290,-59.2 198,-59.2"/>
<text text-anchor="start" x="218" y="-66.3" font-family="Helvetica,sans-Serif" font-size="11.00" fill="#000000">is_proper</text>
<polygon fill="none" stroke="#000000" points="290,-59.2 290,-81.2 356,-81.2 356,-59.2 290,-59.2"/>
<text text-anchor="start" x="293" y="-66.9" font-family="Helvetica,sans-Serif" font-size="11.00" fill="#000000">bit[0]</text>
<polygon fill="#ffffff" stroke="transparent" points="198,-40.2 198,-59.2 225,-59.2 225,-40.2 198,-40.2"/>
<polygon fill="none" stroke="#000000" points="198,-40.2 198,-59.2 225,-59.2 225,-40.2 198,-40.2"/>
<text text-anchor="start" x="201" y="-46.3" font-family="Helvetica,sans-Serif" font-size="11.00" fill="#000000">&lt; 2</text>
<polygon fill="#ffffff" stroke="transparent" points="225,-40.2 225,-59.2 290,-59.2 290,-40.2 225,-40.2"/>
<polygon fill="none" stroke="#000000" points="225,-40.2 225,-59.2 290,-59.2 290,-40.2 225,-40.2"/>
<text text-anchor="start" x="233.2089" y="-46.3" font-family="Helvetica,sans-Serif" font-size="11.00" fill="#000000">1,177 rows</text>
<polygon fill="#ffffff" stroke="transparent" points="290,-40.2 290,-59.2 356,-59.2 356,-40.2 290,-40.2"/>
<polygon fill="none" stroke="#000000" points="290,-40.2 290,-59.2 356,-59.2 356,-40.2 290,-40.2"/>
<text text-anchor="start" x="337.4053" y="-46.3" font-family="Helvetica,sans-Serif" font-size="11.00" fill="#000000">0 &gt;</text>
<polygon fill="none" stroke="#000000" stroke-width="2" points="197,-39.2 197,-237.2 357,-237.2 357,-39.2 197,-39.2"/>
</a>
</g>
</g>
<!-- products -->
<g id="node2" class="node">
<title>products</title>
<g id="a_node2"><a xlink:href="../../tables/products.html" xlink:title="products" target="_top">
<polygon fill="#ffffff" stroke="transparent" points="8,-109.7 8,-192.7 147,-192.7 147,-109.7 8,-109.7"/>
<polygon fill="#f5f5f5" stroke="transparent" points="8.5,-169.2 8.5,-192.2 147.5,-192.2 147.5,-169.2 8.5,-169.2"/>
<polygon fill="none" stroke="#000000" points="8.5,-169.2 8.5,-192.2 147.5,-192.2 147.5,-169.2 8.5,-169.2"/>
<text text-anchor="start" x="13.5" y="-178.3" font-family="Helvetica,sans-Serif" font-weight="bold" font-size="11.00" fill="#000000">products</text>
<text text-anchor="start" x="112.5437" y="-177.3" font-family="Helvetica,sans-Serif" font-size="11.00" fill="#000000">[table]</text>
<polygon fill="none" stroke="#000000" points="8.5,-147.2 8.5,-169.2 147.5,-169.2 147.5,-147.2 8.5,-147.2"/>
<image xlink:href="../../images/primaryKeys.png" width="11px" height="12px" preserveAspectRatio="xMinYMin meet" x="13.5" y="-164.2"/>
<text text-anchor="start" x="28.5" y="-154.3" font-family="Helvetica,sans-Serif" font-size="11.00" fill="#000000">product_id</text>
<polygon fill="none" stroke="#000000" points="8.5,-128.2 8.5,-147.2 147.5,-147.2 147.5,-128.2 8.5,-128.2"/>
<text text-anchor="start" x="11.5" y="-134.3" font-family="Helvetica,sans-Serif" font-size="11.00" fill="#000000">...</text>
<polygon fill="#ffffff" stroke="transparent" points="8.5,-109.2 8.5,-128.2 51.5,-128.2 51.5,-109.2 8.5,-109.2"/>
<polygon fill="none" stroke="#000000" points="8.5,-109.2 8.5,-128.2 51.5,-128.2 51.5,-109.2 8.5,-109.2"/>
<text text-anchor="start" x="11.5" y="-115.3" font-family="Helvetica,sans-Serif" font-size="11.00" fill="#000000"> &#160;</text>
<polygon fill="#ffffff" stroke="transparent" points="51.5,-109.2 51.5,-128.2 110.5,-128.2 110.5,-109.2 51.5,-109.2"/>
<polygon fill="none" stroke="#000000" points="51.5,-109.2 51.5,-128.2 110.5,-128.2 110.5,-109.2 51.5,-109.2"/>
<text text-anchor="start" x="68.9956" y="-115.3" font-family="Helvetica,sans-Serif" font-size="11.00" fill="#000000">15 rows</text>
<polygon fill="#ffffff" stroke="transparent" points="110.5,-109.2 110.5,-128.2 147.5,-128.2 147.5,-109.2 110.5,-109.2"/>
<polygon fill="none" stroke="#000000" points="110.5,-109.2 110.5,-128.2 147.5,-128.2 147.5,-109.2 110.5,-109.2"/>
<text text-anchor="start" x="128.9053" y="-115.3" font-family="Helvetica,sans-Serif" font-size="11.00" fill="#000000">1 &gt;</text>
</a>
</g>
</g>
<!-- sales&#45;&gt;products -->
<g id="edge1" class="edge">
<title>sales:w&#45;&gt;products:e</title>
<path fill="none" stroke="#000000" stroke-dasharray="5,2" d="M183.4203,-158.2C171.5435,-158.2 164.158,-158.2 147.5,-158.2"/>
<polygon fill="#000000" stroke="#000000" points="190,-158.2001 198,-161.8 194,-158.2 198,-158.2 198,-158.2 198,-158.2 194,-158.2 198,-154.6 190,-158.2001 190,-158.2001"/>
<ellipse fill="none" stroke="#000000" cx="186.8" cy="-158.2001" rx="3.2" ry="3.2"/>
</g>
<!-- customers -->
<g id="node3" class="node">
<title>customers</title>
<g id="a_node3"><a xlink:href="../../tables/customers.html" xlink:title="customers" target="_top">
<polygon fill="#ffffff" stroke="transparent" points="22,-225.7 22,-308.7 133,-308.7 133,-225.7 22,-225.7"/>
<polygon fill="#f5f5f5" stroke="transparent" points="22.5,-285.2 22.5,-308.2 133.5,-308.2 133.5,-285.2 22.5,-285.2"/>
<polygon fill="none" stroke="#000000" points="22.5,-285.2 22.5,-308.2 133.5,-308.2 133.5,-285.2 22.5,-285.2"/>
<text text-anchor="start" x="27.5" y="-294.3" font-family="Helvetica,sans-Serif" font-weight="bold" font-size="11.00" fill="#000000">customers</text>
<text text-anchor="start" x="98.5437" y="-293.3" font-family="Helvetica,sans-Serif" font-size="11.00" fill="#000000">[table]</text>
<polygon fill="none" stroke="#000000" points="22.5,-263.2 22.5,-285.2 133.5,-285.2 133.5,-263.2 22.5,-263.2"/>
<image xlink:href="../../images/primaryKeys.png" width="11px" height="12px" preserveAspectRatio="xMinYMin meet" x="27.5" y="-280.2"/>
<text text-anchor="start" x="42.5" y="-270.3" font-family="Helvetica,sans-Serif" font-size="11.00" fill="#000000">user_id</text>
<polygon fill="none" stroke="#000000" points="22.5,-244.2 22.5,-263.2 133.5,-263.2 133.5,-244.2 22.5,-244.2"/>
<text text-anchor="start" x="25.5" y="-250.3" font-family="Helvetica,sans-Serif" font-size="11.00" fill="#000000">...</text>
<polygon fill="#ffffff" stroke="transparent" points="22.5,-225.2 22.5,-244.2 48.5,-244.2 48.5,-225.2 22.5,-225.2"/>
<polygon fill="none" stroke="#000000" points="22.5,-225.2 22.5,-244.2 48.5,-244.2 48.5,-225.2 22.5,-225.2"/>
<text text-anchor="start" x="25.5" y="-231.3" font-family="Helvetica,sans-Serif" font-size="11.00" fill="#000000"> &#160;</text>
<polygon fill="#ffffff" stroke="transparent" points="48.5,-225.2 48.5,-244.2 105.5,-244.2 105.5,-225.2 48.5,-225.2"/>
<polygon fill="none" stroke="#000000" points="48.5,-225.2 48.5,-244.2 105.5,-244.2 105.5,-225.2 48.5,-225.2"/>
<text text-anchor="start" x="57.8807" y="-231.3" font-family="Helvetica,sans-Serif" font-size="11.00" fill="#000000">497 rows</text>
<polygon fill="#ffffff" stroke="transparent" points="105.5,-225.2 105.5,-244.2 133.5,-244.2 133.5,-225.2 105.5,-225.2"/>
<polygon fill="none" stroke="#000000" points="105.5,-225.2 105.5,-244.2 133.5,-244.2 133.5,-225.2 105.5,-225.2"/>
<text text-anchor="start" x="114.9053" y="-231.3" font-family="Helvetica,sans-Serif" font-size="11.00" fill="#000000">2 &gt;</text>
</a>
</g>
</g>
<!-- sales&#45;&gt;customers -->
<g id="edge2" class="edge">
<title>sales:w&#45;&gt;customers:e</title>
<path fill="none" stroke="#000000" stroke-dasharray="5,2" d="M183.8953,-183.5455C154.5552,-200.2906 178.4275,-274.2 133.5,-274.2"/>
<polygon fill="#000000" stroke="#000000" points="190.216,-182.0463 198.8309,-183.7028 194.108,-181.1232 198,-180.2 198,-180.2 198,-180.2 194.108,-181.1232 197.1691,-176.6972 190.216,-182.0463 190.216,-182.0463"/>
<ellipse fill="none" stroke="#000000" cx="187.1024" cy="-182.7849" rx="3.2" ry="3.2"/>
</g>
<!-- web_log -->
<g id="node4" class="node">
<title>web_log</title>
<g id="a_node4"><a xlink:href="../../tables/web_log.html" xlink:title="web_log" target="_top">
<polygon fill="#ffffff" stroke="transparent" points="231,-259.7 231,-320.7 323,-320.7 323,-259.7 231,-259.7"/>
<polygon fill="#f5f5f5" stroke="transparent" points="231,-297.2 231,-320.2 323,-320.2 323,-297.2 231,-297.2"/>
<polygon fill="none" stroke="#000000" points="231,-297.2 231,-320.2 323,-320.2 323,-297.2 231,-297.2"/>
<text text-anchor="start" x="236" y="-306.3" font-family="Helvetica,sans-Serif" font-weight="bold" font-size="11.00" fill="#000000">web_log</text>
<text text-anchor="start" x="288.0437" y="-305.3" font-family="Helvetica,sans-Serif" font-size="11.00" fill="#000000">[table]</text>
<polygon fill="none" stroke="#000000" points="231,-278.2 231,-297.2 323,-297.2 323,-278.2 231,-278.2"/>
<text text-anchor="start" x="234" y="-284.3" font-family="Helvetica,sans-Serif" font-size="11.00" fill="#000000">...</text>
<polygon fill="#ffffff" stroke="transparent" points="231,-259.2 231,-278.2 252,-278.2 252,-259.2 231,-259.2"/>
<polygon fill="none" stroke="#000000" points="231,-259.2 231,-278.2 252,-278.2 252,-259.2 231,-259.2"/>
<text text-anchor="start" x="233.7027" y="-265.3" font-family="Helvetica,sans-Serif" font-size="11.00" fill="#000000">&lt; 1</text>
<polygon fill="#ffffff" stroke="transparent" points="252,-259.2 252,-278.2 311,-278.2 311,-259.2 252,-259.2"/>
<polygon fill="none" stroke="#000000" points="252,-259.2 252,-278.2 311,-278.2 311,-259.2 252,-259.2"/>
<text text-anchor="start" x="254.6045" y="-265.3" font-family="Helvetica,sans-Serif" font-size="11.00" fill="#000000">2,604 rows</text>
<polygon fill="#ffffff" stroke="transparent" points="311,-259.2 311,-278.2 323,-278.2 323,-259.2 311,-259.2"/>
<polygon fill="none" stroke="#000000" points="311,-259.2 311,-278.2 323,-278.2 323,-259.2 311,-259.2"/>
<text text-anchor="start" x="313.9431" y="-265.3" font-family="Helvetica,sans-Serif" font-size="11.00" fill="#000000"> &#160;</text>
</a>
</g>
</g>
<!-- web_log&#45;&gt;customers -->
<g id="edge3" class="edge">
<title>web_log:w&#45;&gt;customers:e</title>
<path fill="none" stroke="#000000" stroke-dasharray="5,2" d="M216.4793,-286.6743C184.3518,-284.2422 171.923,-274.2 133.5,-274.2"/>
<polygon fill="#000000" stroke="#000000" points="223.0052,-286.9105 230.8697,-290.7976 227.0026,-287.0552 231,-287.2 231,-287.2 231,-287.2 227.0026,-287.0552 231.1303,-283.6024 223.0052,-286.9105 223.0052,-286.9105"/>
<ellipse fill="none" stroke="#000000" cx="219.8073" cy="-286.7947" rx="3.2" ry="3.2"/>
</g>
</g>
</svg>
