<?xml version="1.0" encoding="UTF-8" standalone="no"?>
<!DOCTYPE svg PUBLIC "-//W3C//DTD SVG 1.1//EN"
 "http://www.w3.org/Graphics/SVG/1.1/DTD/svg11.dtd">
<!-- Generated by graphviz version 2.40.1 (20161225.0304)
 -->
<!-- Title: twoDegreesRelationshipsDiagramImplied Pages: 1 -->
<svg width="370pt" height="333pt"
 viewBox="0.00 0.00 370.00 332.70" xmlns="http://www.w3.org/2000/svg" xmlns:xlink="http://www.w3.org/1999/xlink">
<g id="graph0" class="graph" transform="scale(1 1) rotate(0) translate(4 328.7)">
<title>twoDegreesRelationshipsDiagramImplied</title>
<polygon fill="#ffffff" stroke="transparent" points="-4,4 -4,-328.7 366,-328.7 366,4 -4,4"/>
<text text-anchor="middle" x="72.4936" y="-7.3" font-family="Helvetica,sans-Serif" font-size="11.00" fill="#000000">Generated by SchemaSpy</text>
<!-- sales -->
<g id="node1" class="node">
<title>sales</title>
<g id="a_node1"><a xlink:href="../../tables/sales.html" xlink:title="sales" target="_top">
<polygon fill="#ffffff" stroke="transparent" points="215,-259.7 215,-320.7 307,-320.7 307,-259.7 215,-259.7"/>
<polygon fill="#f5f5f5" stroke="transparent" points="215,-297.2 215,-320.2 307,-320.2 307,-297.2 215,-297.2"/>
<polygon fill="none" stroke="#000000" points="215,-297.2 215,-320.2 307,-320.2 307,-297.2 215,-297.2"/>
<text text-anchor="start" x="220" y="-306.3" font-family="Helvetica,sans-Serif" font-weight="bold" font-size="11.00" fill="#000000">sales</text>
<text text-anchor="start" x="272.0437" y="-305.3" font-family="Helvetica,sans-Serif" font-size="11.00" fill="#000000">[table]</text>
<polygon fill="none" stroke="#000000" points="215,-278.2 215,-297.2 307,-297.2 307,-278.2 215,-278.2"/>
<text text-anchor="start" x="218" y="-284.3" font-family="Helvetica,sans-Serif" font-size="11.00" fill="#000000">...</text>
<polygon fill="#ffffff" stroke="transparent" points="215,-259.2 215,-278.2 236,-278.2 236,-259.2 215,-259.2"/>
<polygon fill="none" stroke="#000000" points="215,-259.2 215,-278.2 236,-278.2 236,-259.2 215,-259.2"/>
<text text-anchor="start" x="217.7027" y="-265.3" font-family="Helvetica,sans-Serif" font-size="11.00" fill="#000000">&lt; 2</text>
<polygon fill="#ffffff" stroke="transparent" points="236,-259.2 236,-278.2 295,-278.2 295,-259.2 236,-259.2"/>
<polygon fill="none" stroke="#000000" points="236,-259.2 236,-278.2 295,-278.2 295,-259.2 236,-259.2"/>
<text text-anchor="start" x="238.6045" y="-265.3" font-family="Helvetica,sans-Serif" font-size="11.00" fill="#000000">1,177 rows</text>
<polygon fill="#ffffff" stroke="transparent" points="295,-259.2 295,-278.2 307,-278.2 307,-259.2 295,-259.2"/>
<polygon fill="none" stroke="#000000" points="295,-259.2 295,-278.2 307,-278.2 307,-259.2 295,-259.2"/>
<text text-anchor="start" x="297.9431" y="-265.3" font-family="Helvetica,sans-Serif" font-size="11.00" fill="#000000"> &#160;</text>
</a>
</g>
</g>
<!-- customers -->
<g id="node2" class="node">
<title>customers</title>
<g id="a_node2"><a xlink:href="../../tables/customers.html" xlink:title="customers" target="_top">
<polygon fill="#ffffff" stroke="transparent" points="8,-184.7 8,-267.7 119,-267.7 119,-184.7 8,-184.7"/>
<polygon fill="#f5f5f5" stroke="transparent" points="8.5,-244.2 8.5,-267.2 119.5,-267.2 119.5,-244.2 8.5,-244.2"/>
<polygon fill="none" stroke="#000000" points="8.5,-244.2 8.5,-267.2 119.5,-267.2 119.5,-244.2 8.5,-244.2"/>
<text text-anchor="start" x="13.5" y="-253.3" font-family="Helvetica,sans-Serif" font-weight="bold" font-size="11.00" fill="#000000">customers</text>
<text text-anchor="start" x="84.5437" y="-252.3" font-family="Helvetica,sans-Serif" font-size="11.00" fill="#000000">[table]</text>
<polygon fill="none" stroke="#000000" points="8.5,-222.2 8.5,-244.2 119.5,-244.2 119.5,-222.2 8.5,-222.2"/>
<image xlink:href="../../images/primaryKeys.png" width="11px" height="12px" preserveAspectRatio="xMinYMin meet" x="13.5" y="-239.2"/>
<text text-anchor="start" x="28.5" y="-229.3" font-family="Helvetica,sans-Serif" font-size="11.00" fill="#000000">user_id</text>
<polygon fill="none" stroke="#000000" points="8.5,-203.2 8.5,-222.2 119.5,-222.2 119.5,-203.2 8.5,-203.2"/>
<text text-anchor="start" x="11.5" y="-209.3" font-family="Helvetica,sans-Serif" font-size="11.00" fill="#000000">...</text>
<polygon fill="#ffffff" stroke="transparent" points="8.5,-184.2 8.5,-203.2 34.5,-203.2 34.5,-184.2 8.5,-184.2"/>
<polygon fill="none" stroke="#000000" points="8.5,-184.2 8.5,-203.2 34.5,-203.2 34.5,-184.2 8.5,-184.2"/>
<text text-anchor="start" x="11.5" y="-190.3" font-family="Helvetica,sans-Serif" font-size="11.00" fill="#000000"> &#160;</text>
<polygon fill="#ffffff" stroke="transparent" points="34.5,-184.2 34.5,-203.2 91.5,-203.2 91.5,-184.2 34.5,-184.2"/>
<polygon fill="none" stroke="#000000" points="34.5,-184.2 34.5,-203.2 91.5,-203.2 91.5,-184.2 34.5,-184.2"/>
<text text-anchor="start" x="43.8807" y="-190.3" font-family="Helvetica,sans-Serif" font-size="11.00" fill="#000000">497 rows</text>
<polygon fill="#ffffff" stroke="transparent" points="91.5,-184.2 91.5,-203.2 119.5,-203.2 119.5,-184.2 91.5,-184.2"/>
<polygon fill="none" stroke="#000000" points="91.5,-184.2 91.5,-203.2 119.5,-203.2 119.5,-184.2 91.5,-184.2"/>
<text text-anchor="start" x="100.9053" y="-190.3" font-family="Helvetica,sans-Serif" font-size="11.00" fill="#000000">2 &gt;</text>
</a>
</g>
</g>
<!-- sales&#45;&gt;customers -->
<g id="edge1" class="edge">
<title>sales:w&#45;&gt;customers:e</title>
<path fill="none" stroke="#000000" stroke-dasharray="5,2" d="M200.6902,-285.4033C166.0744,-276.0335 162.9268,-233.2 119.5,-233.2"/>
<polygon fill="#000000" stroke="#000000" points="207.0623,-286.2033 214.5515,-290.772 211.0312,-286.7017 215,-287.2 215,-287.2 215,-287.2 211.0312,-286.7017 215.4485,-283.628 207.0623,-286.2033 207.0623,-286.2033"/>
<ellipse fill="none" stroke="#000000" cx="203.8872" cy="-285.8047" rx="3.2" ry="3.2"/>
</g>
<!-- web_log -->
<g id="node3" class="node">
<title>web_log</title>
<g id="a_node3"><a xlink:href="../../tables/web_log.html" xlink:title="web_log" target="_top">
<polygon fill="#ffffff" stroke="transparent" points="168,-38.2 168,-238.2 354,-238.2 354,-38.2 168,-38.2"/>
<polygon fill="#f5f5f5" stroke="transparent" points="170,-213.2 170,-236.2 352,-236.2 352,-213.2 170,-213.2"/>
<polygon fill="none" stroke="#000000" points="170,-213.2 170,-236.2 352,-236.2 352,-213.2 170,-213.2"/>
<text text-anchor="start" x="175" y="-222.3" font-family="Helvetica,sans-Serif" font-weight="bold" font-size="11.00" fill="#000000">web_log</text>
<text text-anchor="start" x="317.0437" y="-221.3" font-family="Helvetica,sans-Serif" font-size="11.00" fill="#000000">[table]</text>
<polygon fill="none" stroke="#000000" points="170,-191.2 170,-213.2 285,-213.2 285,-191.2 170,-191.2"/>
<text text-anchor="start" x="190" y="-198.3" font-family="Helvetica,sans-Serif" font-size="11.00" fill="#000000">cid</text>
<polygon fill="none" stroke="#000000" points="285,-191.2 285,-213.2 352,-213.2 352,-191.2 285,-191.2"/>
<text text-anchor="start" x="287.9365" y="-198.9" font-family="Helvetica,sans-Serif" font-size="11.00" fill="#000000">varchar[255]</text>
<polygon fill="none" stroke="#000000" points="170,-169.2 170,-191.2 285,-191.2 285,-169.2 170,-169.2"/>
<image xlink:href="../../images/foreignKeys.png" width="11px" height="12px" preserveAspectRatio="xMinYMin meet" x="175" y="-186.2"/>
<text text-anchor="start" x="190" y="-176.3" font-family="Helvetica,sans-Serif" font-size="11.00" fill="#000000">user_id</text>
<polygon fill="none" stroke="#000000" points="285,-169.2 285,-191.2 352,-191.2 352,-169.2 285,-169.2"/>
<text text-anchor="start" x="288" y="-176.9" font-family="Helvetica,sans-Serif" font-size="11.00" fill="#000000">int[10]</text>
<polygon fill="none" stroke="#000000" points="170,-147.2 170,-169.2 285,-169.2 285,-147.2 170,-147.2"/>
<text text-anchor="start" x="190" y="-154.3" font-family="Helvetica,sans-Serif" font-size="11.00" fill="#000000">device</text>
<polygon fill="none" stroke="#000000" points="285,-147.2 285,-169.2 352,-169.2 352,-147.2 285,-147.2"/>
<text text-anchor="start" x="287.9365" y="-154.9" font-family="Helvetica,sans-Serif" font-size="11.00" fill="#000000">varchar[255]</text>
<polygon fill="none" stroke="#000000" points="170,-125.2 170,-147.2 285,-147.2 285,-125.2 170,-125.2"/>
<text text-anchor="start" x="190" y="-132.3" font-family="Helvetica,sans-Serif" font-size="11.00" fill="#000000">session_count</text>
<polygon fill="none" stroke="#000000" points="285,-125.2 285,-147.2 352,-147.2 352,-125.2 285,-125.2"/>
<text text-anchor="start" x="288" y="-132.9" font-family="Helvetica,sans-Serif" font-size="11.00" fill="#000000">int[10]</text>
<polygon fill="none" stroke="#000000" points="170,-103.2 170,-125.2 285,-125.2 285,-103.2 170,-103.2"/>
<text text-anchor="start" x="190" y="-110.3" font-family="Helvetica,sans-Serif" font-size="11.00" fill="#000000">media</text>
<polygon fill="none" stroke="#000000" points="285,-103.2 285,-125.2 352,-125.2 352,-103.2 285,-103.2"/>
<text text-anchor="start" x="287.9365" y="-110.9" font-family="Helvetica,sans-Serif" font-size="11.00" fill="#000000">varchar[255]</text>
<polygon fill="none" stroke="#000000" points="170,-81.2 170,-103.2 285,-103.2 285,-81.2 170,-81.2"/>
<text text-anchor="start" x="190" y="-88.3" font-family="Helvetica,sans-Serif" font-size="11.00" fill="#000000">date_time</text>
<polygon fill="none" stroke="#000000" points="285,-81.2 285,-103.2 352,-103.2 352,-81.2 285,-81.2"/>
<text text-anchor="start" x="288" y="-88.9" font-family="Helvetica,sans-Serif" font-size="11.00" fill="#000000">date[10]</text>
<polygon fill="none" stroke="#000000" points="170,-59.2 170,-81.2 285,-81.2 285,-59.2 170,-59.2"/>
<text text-anchor="start" x="190" y="-66.3" font-family="Helvetica,sans-Serif" font-size="11.00" fill="#000000">page</text>
<polygon fill="none" stroke="#000000" points="285,-59.2 285,-81.2 352,-81.2 352,-59.2 285,-59.2"/>
<text text-anchor="start" x="287.9365" y="-66.9" font-family="Helvetica,sans-Serif" font-size="11.00" fill="#000000">varchar[255]</text>
<polygon fill="#ffffff" stroke="transparent" points="170,-40.2 170,-59.2 208,-59.2 208,-40.2 170,-40.2"/>
<polygon fill="none" stroke="#000000" points="170,-40.2 170,-59.2 208,-59.2 208,-40.2 170,-40.2"/>
<text text-anchor="start" x="173" y="-46.3" font-family="Helvetica,sans-Serif" font-size="11.00" fill="#000000">&lt; 1</text>
<polygon fill="#ffffff" stroke="transparent" points="208,-40.2 208,-59.2 285,-59.2 285,-40.2 208,-40.2"/>
<polygon fill="none" stroke="#000000" points="208,-40.2 208,-59.2 285,-59.2 285,-40.2 208,-40.2"/>
<text text-anchor="start" x="228.2089" y="-46.3" font-family="Helvetica,sans-Serif" font-size="11.00" fill="#000000">2,604 rows</text>
<polygon fill="#ffffff" stroke="transparent" points="285,-40.2 285,-59.2 352,-59.2 352,-40.2 285,-40.2"/>
<polygon fill="none" stroke="#000000" points="285,-40.2 285,-59.2 352,-59.2 352,-40.2 285,-40.2"/>
<text text-anchor="start" x="333.4053" y="-46.3" font-family="Helvetica,sans-Serif" font-size="11.00" fill="#000000">0 &gt;</text>
<polygon fill="none" stroke="#000000" stroke-width="2" points="169,-39.2 169,-237.2 353,-237.2 353,-39.2 169,-39.2"/>
</a>
</g>
</g>
<!-- web_log&#45;&gt;customers -->
<g id="edge2" class="edge">
<title>web_log:w&#45;&gt;customers:e</title>
<path fill="none" stroke="#000000" stroke-dasharray="5,2" d="M156.0458,-185.0911C141.2722,-198.2117 145.9358,-233.2 119.5,-233.2"/>
<polygon fill="#000000" stroke="#000000" points="162.4503,-182.8463 171.1908,-183.5974 166.2252,-181.5231 170,-180.2 170,-180.2 170,-180.2 166.2252,-181.5231 168.8092,-176.8026 162.4503,-182.8463 162.4503,-182.8463"/>
<ellipse fill="none" stroke="#000000" cx="159.4305" cy="-183.9048" rx="3.2" ry="3.2"/>
</g>
</g>
</svg>
