<?xml version="1.0" encoding="UTF-8" standalone="no"?>
<!DOCTYPE svg PUBLIC "-//W3C//DTD SVG 1.1//EN"
 "http://www.w3.org/Graphics/SVG/1.1/DTD/svg11.dtd">
<!-- Generated by graphviz version 2.40.1 (20161225.0304)
 -->
<!-- Title: customers Pages: 1 -->
<svg width="206pt" height="216pt"
 viewBox="0.00 0.00 206.00 216.00" xmlns="http://www.w3.org/2000/svg" xmlns:xlink="http://www.w3.org/1999/xlink">
<g id="graph0" class="graph" transform="scale(1 1) rotate(0) translate(4 212)">
<title>customers</title>
<polygon fill="#ffffff" stroke="transparent" points="-4,4 -4,-212 202,-212 202,4 -4,4"/>
<!-- customers -->
<g id="node1" class="node">
<title>customers</title>
<g id="a_node1"><a xlink:href="../../tables/customers.html" xlink:title="customers" target="_top">
<polygon fill="#ffffff" stroke="transparent" points="8,-4 8,-204 190,-204 190,-4 8,-4"/>
<polygon fill="#f5f5f5" stroke="transparent" points="10,-179 10,-202 188,-202 188,-179 10,-179"/>
<polygon fill="none" stroke="#000000" points="10,-179 10,-202 188,-202 188,-179 10,-179"/>
<text text-anchor="start" x="15" y="-188.1" font-family="Helvetica,sans-Serif" font-weight="bold" font-size="11.00" fill="#000000">customers</text>
<text text-anchor="start" x="153.0437" y="-187.1" font-family="Helvetica,sans-Serif" font-size="11.00" fill="#000000">[table]</text>
<polygon fill="none" stroke="#000000" points="10,-157 10,-179 121,-179 121,-157 10,-157"/>
<image xlink:href="../../images/primaryKeys.png" width="11px" height="12px" preserveAspectRatio="xMinYMin meet" x="15" y="-174"/>
<text text-anchor="start" x="30" y="-164.1" font-family="Helvetica,sans-Serif" font-size="11.00" fill="#000000">user_id</text>
<polygon fill="none" stroke="#000000" points="121,-157 121,-179 188,-179 188,-157 121,-157"/>
<text text-anchor="start" x="124" y="-164.7" font-family="Helvetica,sans-Serif" font-size="11.00" fill="#000000">int[10]</text>
<polygon fill="none" stroke="#000000" points="10,-135 10,-157 121,-157 121,-135 10,-135"/>
<text text-anchor="start" x="30" y="-142.1" font-family="Helvetica,sans-Serif" font-size="11.00" fill="#000000">name</text>
<polygon fill="none" stroke="#000000" points="121,-135 121,-157 188,-157 188,-135 121,-135"/>
<text text-anchor="start" x="123.9365" y="-142.7" font-family="Helvetica,sans-Serif" font-size="11.00" fill="#000000">varchar[255]</text>
<polygon fill="none" stroke="#000000" points="10,-113 10,-135 121,-135 121,-113 10,-113"/>
<text text-anchor="start" x="30" y="-120.1" font-family="Helvetica,sans-Serif" font-size="11.00" fill="#000000">birthday</text>
<polygon fill="none" stroke="#000000" points="121,-113 121,-135 188,-135 188,-113 121,-113"/>
<text text-anchor="start" x="124" y="-120.7" font-family="Helvetica,sans-Serif" font-size="11.00" fill="#000000">date[10]</text>
<polygon fill="none" stroke="#000000" points="10,-91 10,-113 121,-113 121,-91 10,-91"/>
<text text-anchor="start" x="30" y="-98.1" font-family="Helvetica,sans-Serif" font-size="11.00" fill="#000000">gender</text>
<polygon fill="none" stroke="#000000" points="121,-91 121,-113 188,-113 188,-91 121,-91"/>
<text text-anchor="start" x="124" y="-98.7" font-family="Helvetica,sans-Serif" font-size="11.00" fill="#000000">int[10]</text>
<polygon fill="none" stroke="#000000" points="10,-69 10,-91 121,-91 121,-69 10,-69"/>
<text text-anchor="start" x="30" y="-76.1" font-family="Helvetica,sans-Serif" font-size="11.00" fill="#000000">prefecture</text>
<polygon fill="none" stroke="#000000" points="121,-69 121,-91 188,-91 188,-69 121,-69"/>
<text text-anchor="start" x="123.9365" y="-76.7" font-family="Helvetica,sans-Serif" font-size="11.00" fill="#000000">varchar[255]</text>
<polygon fill="none" stroke="#000000" points="10,-47 10,-69 121,-69 121,-47 10,-47"/>
<text text-anchor="start" x="30" y="-54.1" font-family="Helvetica,sans-Serif" font-size="11.00" fill="#000000">register_date</text>
<polygon fill="none" stroke="#000000" points="121,-47 121,-69 188,-69 188,-47 121,-47"/>
<text text-anchor="start" x="124" y="-54.7" font-family="Helvetica,sans-Serif" font-size="11.00" fill="#000000">date[10]</text>
<polygon fill="none" stroke="#000000" points="10,-25 10,-47 121,-47 121,-25 10,-25"/>
<text text-anchor="start" x="30" y="-32.1" font-family="Helvetica,sans-Serif" font-size="11.00" fill="#000000">is_premium</text>
<polygon fill="none" stroke="#000000" points="121,-25 121,-47 188,-47 188,-25 121,-25"/>
<text text-anchor="start" x="124" y="-32.7" font-family="Helvetica,sans-Serif" font-size="11.00" fill="#000000">bit[0]</text>
<polygon fill="#ffffff" stroke="transparent" points="10,-6 10,-25 51,-25 51,-6 10,-6"/>
<polygon fill="none" stroke="#000000" points="10,-6 10,-25 51,-25 51,-6 10,-6"/>
<text text-anchor="start" x="13" y="-12.1" font-family="Helvetica,sans-Serif" font-size="11.00" fill="#000000">&lt; 0</text>
<polygon fill="#ffffff" stroke="transparent" points="51,-6 51,-25 121,-25 121,-6 51,-6"/>
<polygon fill="none" stroke="#000000" points="51,-6 51,-25 121,-25 121,-6 51,-6"/>
<text text-anchor="start" x="73.3807" y="-12.1" font-family="Helvetica,sans-Serif" font-size="11.00" fill="#000000">497 rows</text>
<polygon fill="#ffffff" stroke="transparent" points="121,-6 121,-25 188,-25 188,-6 121,-6"/>
<polygon fill="none" stroke="#000000" points="121,-6 121,-25 188,-25 188,-6 121,-6"/>
<text text-anchor="start" x="169.4053" y="-12.1" font-family="Helvetica,sans-Serif" font-size="11.00" fill="#000000">0 &gt;</text>
<polygon fill="none" stroke="#000000" stroke-width="2" points="9,-5 9,-203 189,-203 189,-5 9,-5"/>
</a>
</g>
</g>
</g>
</svg>
