<?xml version="1.0" encoding="UTF-8" standalone="no"?>
<!DOCTYPE svg PUBLIC "-//W3C//DTD SVG 1.1//EN"
 "http://www.w3.org/Graphics/SVG/1.1/DTD/svg11.dtd">
<!-- Generated by graphviz version 2.40.1 (20161225.0304)
 -->
<!-- Title: products Pages: 1 -->
<svg width="234pt" height="150pt"
 viewBox="0.00 0.00 234.00 150.00" xmlns="http://www.w3.org/2000/svg" xmlns:xlink="http://www.w3.org/1999/xlink">
<g id="graph0" class="graph" transform="scale(1 1) rotate(0) translate(4 146)">
<title>products</title>
<polygon fill="#ffffff" stroke="transparent" points="-4,4 -4,-146 230,-146 230,4 -4,4"/>
<!-- products -->
<g id="node1" class="node">
<title>products</title>
<g id="a_node1"><a xlink:href="../../tables/products.html" xlink:title="products" target="_top">
<polygon fill="#ffffff" stroke="transparent" points="8,-4 8,-138 218,-138 218,-4 8,-4"/>
<polygon fill="#f5f5f5" stroke="transparent" points="10,-113 10,-136 216,-136 216,-113 10,-113"/>
<polygon fill="none" stroke="#000000" points="10,-113 10,-136 216,-136 216,-113 10,-113"/>
<text text-anchor="start" x="15" y="-122.1" font-family="Helvetica,sans-Serif" font-weight="bold" font-size="11.00" fill="#000000">products</text>
<text text-anchor="start" x="181.0437" y="-121.1" font-family="Helvetica,sans-Serif" font-size="11.00" fill="#000000">[table]</text>
<polygon fill="none" stroke="#000000" points="10,-91 10,-113 149,-113 149,-91 10,-91"/>
<image xlink:href="../../images/primaryKeys.png" width="11px" height="12px" preserveAspectRatio="xMinYMin meet" x="15" y="-108"/>
<text text-anchor="start" x="30" y="-98.1" font-family="Helvetica,sans-Serif" font-size="11.00" fill="#000000">product_id</text>
<polygon fill="none" stroke="#000000" points="149,-91 149,-113 216,-113 216,-91 149,-91"/>
<text text-anchor="start" x="152" y="-98.7" font-family="Helvetica,sans-Serif" font-size="11.00" fill="#000000">int[10]</text>
<polygon fill="none" stroke="#000000" points="10,-69 10,-91 149,-91 149,-69 10,-69"/>
<text text-anchor="start" x="30" y="-76.1" font-family="Helvetica,sans-Serif" font-size="11.00" fill="#000000">product_name</text>
<polygon fill="none" stroke="#000000" points="149,-69 149,-91 216,-91 216,-69 149,-69"/>
<text text-anchor="start" x="151.9365" y="-76.7" font-family="Helvetica,sans-Serif" font-size="11.00" fill="#000000">varchar[255]</text>
<polygon fill="none" stroke="#000000" points="10,-47 10,-69 149,-69 149,-47 10,-47"/>
<text text-anchor="start" x="30" y="-54.1" font-family="Helvetica,sans-Serif" font-size="11.00" fill="#000000">product_category</text>
<polygon fill="none" stroke="#000000" points="149,-47 149,-69 216,-69 216,-47 149,-47"/>
<text text-anchor="start" x="151.9365" y="-54.7" font-family="Helvetica,sans-Serif" font-size="11.00" fill="#000000">varchar[255]</text>
<polygon fill="none" stroke="#000000" points="10,-25 10,-47 149,-47 149,-25 10,-25"/>
<text text-anchor="start" x="30" y="-32.1" font-family="Helvetica,sans-Serif" font-size="11.00" fill="#000000">cost</text>
<polygon fill="none" stroke="#000000" points="149,-25 149,-47 216,-47 216,-25 149,-25"/>
<text text-anchor="start" x="152" y="-32.7" font-family="Helvetica,sans-Serif" font-size="11.00" fill="#000000">int[10]</text>
<polygon fill="#ffffff" stroke="transparent" points="10,-6 10,-25 68,-25 68,-6 10,-6"/>
<polygon fill="none" stroke="#000000" points="10,-6 10,-25 68,-25 68,-6 10,-6"/>
<text text-anchor="start" x="13" y="-12.1" font-family="Helvetica,sans-Serif" font-size="11.00" fill="#000000">&lt; 0</text>
<polygon fill="#ffffff" stroke="transparent" points="68,-6 68,-25 149,-25 149,-6 68,-6"/>
<polygon fill="none" stroke="#000000" points="68,-6 68,-25 149,-25 149,-6 68,-6"/>
<text text-anchor="start" x="107.4956" y="-12.1" font-family="Helvetica,sans-Serif" font-size="11.00" fill="#000000">15 rows</text>
<polygon fill="#ffffff" stroke="transparent" points="149,-6 149,-25 216,-25 216,-6 149,-6"/>
<polygon fill="none" stroke="#000000" points="149,-6 149,-25 216,-25 216,-6 149,-6"/>
<text text-anchor="start" x="197.4053" y="-12.1" font-family="Helvetica,sans-Serif" font-size="11.00" fill="#000000">0 &gt;</text>
<polygon fill="none" stroke="#000000" stroke-width="2" points="9,-5 9,-137 217,-137 217,-5 9,-5"/>
</a>
</g>
</g>
</g>
</svg>
