<?xml version="1.0" encoding="UTF-8" standalone="no"?>
<!DOCTYPE svg PUBLIC "-//W3C//DTD SVG 1.1//EN"
 "http://www.w3.org/Graphics/SVG/1.1/DTD/svg11.dtd">
<!-- Generated by graphviz version 2.40.1 (20161225.0304)
 -->
<!-- Title: web_log Pages: 1 -->
<svg width="210pt" height="216pt"
 viewBox="0.00 0.00 210.00 216.00" xmlns="http://www.w3.org/2000/svg" xmlns:xlink="http://www.w3.org/1999/xlink">
<g id="graph0" class="graph" transform="scale(1 1) rotate(0) translate(4 212)">
<title>web_log</title>
<polygon fill="#ffffff" stroke="transparent" points="-4,4 -4,-212 206,-212 206,4 -4,4"/>
<!-- web_log -->
<g id="node1" class="node">
<title>web_log</title>
<g id="a_node1"><a xlink:href="../../tables/web_log.html" xlink:title="web_log" target="_top">
<polygon fill="#ffffff" stroke="transparent" points="8,-4 8,-204 194,-204 194,-4 8,-4"/>
<polygon fill="#f5f5f5" stroke="transparent" points="10,-179 10,-202 192,-202 192,-179 10,-179"/>
<polygon fill="none" stroke="#000000" points="10,-179 10,-202 192,-202 192,-179 10,-179"/>
<text text-anchor="start" x="15" y="-188.1" font-family="Helvetica,sans-Serif" font-weight="bold" font-size="11.00" fill="#000000">web_log</text>
<text text-anchor="start" x="157.0437" y="-187.1" font-family="Helvetica,sans-Serif" font-size="11.00" fill="#000000">[table]</text>
<polygon fill="none" stroke="#000000" points="10,-157 10,-179 125,-179 125,-157 10,-157"/>
<text text-anchor="start" x="30" y="-164.1" font-family="Helvetica,sans-Serif" font-size="11.00" fill="#000000">cid</text>
<polygon fill="none" stroke="#000000" points="125,-157 125,-179 192,-179 192,-157 125,-157"/>
<text text-anchor="start" x="127.9365" y="-164.7" font-family="Helvetica,sans-Serif" font-size="11.00" fill="#000000">varchar[255]</text>
<polygon fill="none" stroke="#000000" points="10,-135 10,-157 125,-157 125,-135 10,-135"/>
<image xlink:href="../../images/foreignKeys.png" width="11px" height="12px" preserveAspectRatio="xMinYMin meet" x="15" y="-152"/>
<text text-anchor="start" x="30" y="-142.1" font-family="Helvetica,sans-Serif" font-size="11.00" fill="#000000">user_id</text>
<polygon fill="none" stroke="#000000" points="125,-135 125,-157 192,-157 192,-135 125,-135"/>
<text text-anchor="start" x="128" y="-142.7" font-family="Helvetica,sans-Serif" font-size="11.00" fill="#000000">int[10]</text>
<polygon fill="none" stroke="#000000" points="10,-113 10,-135 125,-135 125,-113 10,-113"/>
<text text-anchor="start" x="30" y="-120.1" font-family="Helvetica,sans-Serif" font-size="11.00" fill="#000000">device</text>
<polygon fill="none" stroke="#000000" points="125,-113 125,-135 192,-135 192,-113 125,-113"/>
<text text-anchor="start" x="127.9365" y="-120.7" font-family="Helvetica,sans-Serif" font-size="11.00" fill="#000000">varchar[255]</text>
<polygon fill="none" stroke="#000000" points="10,-91 10,-113 125,-113 125,-91 10,-91"/>
<text text-anchor="start" x="30" y="-98.1" font-family="Helvetica,sans-Serif" font-size="11.00" fill="#000000">session_count</text>
<polygon fill="none" stroke="#000000" points="125,-91 125,-113 192,-113 192,-91 125,-91"/>
<text text-anchor="start" x="128" y="-98.7" font-family="Helvetica,sans-Serif" font-size="11.00" fill="#000000">int[10]</text>
<polygon fill="none" stroke="#000000" points="10,-69 10,-91 125,-91 125,-69 10,-69"/>
<text text-anchor="start" x="30" y="-76.1" font-family="Helvetica,sans-Serif" font-size="11.00" fill="#000000">media</text>
<polygon fill="none" stroke="#000000" points="125,-69 125,-91 192,-91 192,-69 125,-69"/>
<text text-anchor="start" x="127.9365" y="-76.7" font-family="Helvetica,sans-Serif" font-size="11.00" fill="#000000">varchar[255]</text>
<polygon fill="none" stroke="#000000" points="10,-47 10,-69 125,-69 125,-47 10,-47"/>
<text text-anchor="start" x="30" y="-54.1" font-family="Helvetica,sans-Serif" font-size="11.00" fill="#000000">date_time</text>
<polygon fill="none" stroke="#000000" points="125,-47 125,-69 192,-69 192,-47 125,-47"/>
<text text-anchor="start" x="128" y="-54.7" font-family="Helvetica,sans-Serif" font-size="11.00" fill="#000000">date[10]</text>
<polygon fill="none" stroke="#000000" points="10,-25 10,-47 125,-47 125,-25 10,-25"/>
<text text-anchor="start" x="30" y="-32.1" font-family="Helvetica,sans-Serif" font-size="11.00" fill="#000000">page</text>
<polygon fill="none" stroke="#000000" points="125,-25 125,-47 192,-47 192,-25 125,-25"/>
<text text-anchor="start" x="127.9365" y="-32.7" font-family="Helvetica,sans-Serif" font-size="11.00" fill="#000000">varchar[255]</text>
<polygon fill="#ffffff" stroke="transparent" points="10,-6 10,-25 48,-25 48,-6 10,-6"/>
<polygon fill="none" stroke="#000000" points="10,-6 10,-25 48,-25 48,-6 10,-6"/>
<text text-anchor="start" x="13" y="-12.1" font-family="Helvetica,sans-Serif" font-size="11.00" fill="#000000">&lt; 0</text>
<polygon fill="#ffffff" stroke="transparent" points="48,-6 48,-25 125,-25 125,-6 48,-6"/>
<polygon fill="none" stroke="#000000" points="48,-6 48,-25 125,-25 125,-6 48,-6"/>
<text text-anchor="start" x="68.2089" y="-12.1" font-family="Helvetica,sans-Serif" font-size="11.00" fill="#000000">2,604 rows</text>
<polygon fill="#ffffff" stroke="transparent" points="125,-6 125,-25 192,-25 192,-6 125,-6"/>
<polygon fill="none" stroke="#000000" points="125,-6 125,-25 192,-25 192,-6 125,-6"/>
<text text-anchor="start" x="173.4053" y="-12.1" font-family="Helvetica,sans-Serif" font-size="11.00" fill="#000000">0 &gt;</text>
<polygon fill="none" stroke="#000000" stroke-width="2" points="9,-5 9,-203 193,-203 193,-5 9,-5"/>
</a>
</g>
</g>
</g>
</svg>
