<?xml version="1.0" encoding="UTF-8" standalone="no"?>
<!DOCTYPE svg PUBLIC "-//W3C//DTD SVG 1.1//EN"
 "http://www.w3.org/Graphics/SVG/1.1/DTD/svg11.dtd">
<!-- Generated by graphviz version 2.40.1 (20161225.0304)
 -->
<!-- Title: largeImpliedRelationshipsDiagram Pages: 1 -->
<svg width="327pt" height="463pt"
 viewBox="0.00 0.00 327.00 463.20" xmlns="http://www.w3.org/2000/svg" xmlns:xlink="http://www.w3.org/1999/xlink">
<g id="graph0" class="graph" transform="scale(1 1) rotate(0) translate(4 459.2)">
<title>largeImpliedRelationshipsDiagram</title>
<polygon fill="#ffffff" stroke="transparent" points="-4,4 -4,-459.2 323,-459.2 323,4 -4,4"/>
<text text-anchor="middle" x="72.4936" y="-7.3" font-family="Helvetica,sans-Serif" font-size="11.00" fill="#000000">Generated by SchemaSpy</text>
<!-- customers -->
<g id="node1" class="node">
<title>customers</title>
<g id="a_node1"><a xlink:href="../../tables/customers.html" xlink:title="customers" target="_top">
<polygon fill="#ffffff" stroke="transparent" points="22,-222.2 22,-418.2 133,-418.2 133,-222.2 22,-222.2"/>
<polygon fill="#f5f5f5" stroke="transparent" points="22.5,-395.2 22.5,-418.2 133.5,-418.2 133.5,-395.2 22.5,-395.2"/>
<polygon fill="none" stroke="#000000" points="22.5,-395.2 22.5,-418.2 133.5,-418.2 133.5,-395.2 22.5,-395.2"/>
<text text-anchor="start" x="27.5" y="-404.3" font-family="Helvetica,sans-Serif" font-weight="bold" font-size="11.00" fill="#000000">customers</text>
<text text-anchor="start" x="98.5437" y="-403.3" font-family="Helvetica,sans-Serif" font-size="11.00" fill="#000000">[table]</text>
<polygon fill="none" stroke="#000000" points="22.5,-373.2 22.5,-395.2 133.5,-395.2 133.5,-373.2 22.5,-373.2"/>
<image xlink:href="../../images/primaryKeys.png" width="11px" height="12px" preserveAspectRatio="xMinYMin meet" x="27.5" y="-390.2"/>
<text text-anchor="start" x="42.5" y="-380.3" font-family="Helvetica,sans-Serif" font-size="11.00" fill="#000000">user_id</text>
<polygon fill="none" stroke="#000000" points="22.5,-351.2 22.5,-373.2 133.5,-373.2 133.5,-351.2 22.5,-351.2"/>
<text text-anchor="start" x="42.5" y="-358.3" font-family="Helvetica,sans-Serif" font-size="11.00" fill="#000000">name</text>
<polygon fill="none" stroke="#000000" points="22.5,-329.2 22.5,-351.2 133.5,-351.2 133.5,-329.2 22.5,-329.2"/>
<text text-anchor="start" x="42.5" y="-336.3" font-family="Helvetica,sans-Serif" font-size="11.00" fill="#000000">birthday</text>
<polygon fill="none" stroke="#000000" points="22.5,-307.2 22.5,-329.2 133.5,-329.2 133.5,-307.2 22.5,-307.2"/>
<text text-anchor="start" x="42.5" y="-314.3" font-family="Helvetica,sans-Serif" font-size="11.00" fill="#000000">gender</text>
<polygon fill="none" stroke="#000000" points="22.5,-285.2 22.5,-307.2 133.5,-307.2 133.5,-285.2 22.5,-285.2"/>
<text text-anchor="start" x="42.5" y="-292.3" font-family="Helvetica,sans-Serif" font-size="11.00" fill="#000000">prefecture</text>
<polygon fill="none" stroke="#000000" points="22.5,-263.2 22.5,-285.2 133.5,-285.2 133.5,-263.2 22.5,-263.2"/>
<text text-anchor="start" x="42.5" y="-270.3" font-family="Helvetica,sans-Serif" font-size="11.00" fill="#000000">register_date</text>
<polygon fill="none" stroke="#000000" points="22.5,-241.2 22.5,-263.2 133.5,-263.2 133.5,-241.2 22.5,-241.2"/>
<text text-anchor="start" x="42.5" y="-248.3" font-family="Helvetica,sans-Serif" font-size="11.00" fill="#000000">is_premium</text>
<polygon fill="#ffffff" stroke="transparent" points="22.5,-222.2 22.5,-241.2 52.5,-241.2 52.5,-222.2 22.5,-222.2"/>
<polygon fill="none" stroke="#000000" points="22.5,-222.2 22.5,-241.2 52.5,-241.2 52.5,-222.2 22.5,-222.2"/>
<text text-anchor="start" x="25.5" y="-228.3" font-family="Helvetica,sans-Serif" font-size="11.00" fill="#000000"> &#160;</text>
<polygon fill="#ffffff" stroke="transparent" points="52.5,-222.2 52.5,-241.2 111.5,-241.2 111.5,-222.2 52.5,-222.2"/>
<polygon fill="none" stroke="#000000" points="52.5,-222.2 52.5,-241.2 111.5,-241.2 111.5,-222.2 52.5,-222.2"/>
<text text-anchor="start" x="63.8807" y="-228.3" font-family="Helvetica,sans-Serif" font-size="11.00" fill="#000000">497 rows</text>
<polygon fill="#ffffff" stroke="transparent" points="111.5,-222.2 111.5,-241.2 133.5,-241.2 133.5,-222.2 111.5,-222.2"/>
<polygon fill="none" stroke="#000000" points="111.5,-222.2 111.5,-241.2 133.5,-241.2 133.5,-222.2 111.5,-222.2"/>
<text text-anchor="start" x="124.3862" y="-228.3" font-family="Helvetica,sans-Serif" font-size="11.00" fill="#000000"> &#160;</text>
</a>
</g>
</g>
<!-- products -->
<g id="node2" class="node">
<title>products</title>
<g id="a_node2"><a xlink:href="../../tables/products.html" xlink:title="products" target="_top">
<polygon fill="#ffffff" stroke="transparent" points="8,-60.2 8,-190.2 147,-190.2 147,-60.2 8,-60.2"/>
<polygon fill="#f5f5f5" stroke="transparent" points="8.5,-167.2 8.5,-190.2 147.5,-190.2 147.5,-167.2 8.5,-167.2"/>
<polygon fill="none" stroke="#000000" points="8.5,-167.2 8.5,-190.2 147.5,-190.2 147.5,-167.2 8.5,-167.2"/>
<text text-anchor="start" x="13.5" y="-176.3" font-family="Helvetica,sans-Serif" font-weight="bold" font-size="11.00" fill="#000000">products</text>
<text text-anchor="start" x="112.5437" y="-175.3" font-family="Helvetica,sans-Serif" font-size="11.00" fill="#000000">[table]</text>
<polygon fill="none" stroke="#000000" points="8.5,-145.2 8.5,-167.2 147.5,-167.2 147.5,-145.2 8.5,-145.2"/>
<image xlink:href="../../images/primaryKeys.png" width="11px" height="12px" preserveAspectRatio="xMinYMin meet" x="13.5" y="-162.2"/>
<text text-anchor="start" x="28.5" y="-152.3" font-family="Helvetica,sans-Serif" font-size="11.00" fill="#000000">product_id</text>
<polygon fill="none" stroke="#000000" points="8.5,-123.2 8.5,-145.2 147.5,-145.2 147.5,-123.2 8.5,-123.2"/>
<text text-anchor="start" x="28.5" y="-130.3" font-family="Helvetica,sans-Serif" font-size="11.00" fill="#000000">product_name</text>
<polygon fill="none" stroke="#000000" points="8.5,-101.2 8.5,-123.2 147.5,-123.2 147.5,-101.2 8.5,-101.2"/>
<text text-anchor="start" x="28.5" y="-108.3" font-family="Helvetica,sans-Serif" font-size="11.00" fill="#000000">product_category</text>
<polygon fill="none" stroke="#000000" points="8.5,-79.2 8.5,-101.2 147.5,-101.2 147.5,-79.2 8.5,-79.2"/>
<text text-anchor="start" x="28.5" y="-86.3" font-family="Helvetica,sans-Serif" font-size="11.00" fill="#000000">cost</text>
<polygon fill="#ffffff" stroke="transparent" points="8.5,-60.2 8.5,-79.2 55.5,-79.2 55.5,-60.2 8.5,-60.2"/>
<polygon fill="none" stroke="#000000" points="8.5,-60.2 8.5,-79.2 55.5,-79.2 55.5,-60.2 8.5,-60.2"/>
<text text-anchor="start" x="11.5" y="-66.3" font-family="Helvetica,sans-Serif" font-size="11.00" fill="#000000"> &#160;</text>
<polygon fill="#ffffff" stroke="transparent" points="55.5,-60.2 55.5,-79.2 117.5,-79.2 117.5,-60.2 55.5,-60.2"/>
<polygon fill="none" stroke="#000000" points="55.5,-60.2 55.5,-79.2 117.5,-79.2 117.5,-60.2 55.5,-60.2"/>
<text text-anchor="start" x="75.9956" y="-66.3" font-family="Helvetica,sans-Serif" font-size="11.00" fill="#000000">15 rows</text>
<polygon fill="#ffffff" stroke="transparent" points="117.5,-60.2 117.5,-79.2 147.5,-79.2 147.5,-60.2 117.5,-60.2"/>
<polygon fill="none" stroke="#000000" points="117.5,-60.2 117.5,-79.2 147.5,-79.2 147.5,-60.2 117.5,-60.2"/>
<text text-anchor="start" x="138.3862" y="-66.3" font-family="Helvetica,sans-Serif" font-size="11.00" fill="#000000"> &#160;</text>
</a>
</g>
</g>
<!-- sales -->
<g id="node3" class="node">
<title>sales</title>
<g id="a_node3"><a xlink:href="../../tables/sales.html" xlink:title="sales" target="_top">
<polygon fill="#ffffff" stroke="transparent" points="207.5,-38.2 207.5,-234.2 299.5,-234.2 299.5,-38.2 207.5,-38.2"/>
<polygon fill="#f5f5f5" stroke="transparent" points="207.5,-211.2 207.5,-234.2 299.5,-234.2 299.5,-211.2 207.5,-211.2"/>
<polygon fill="none" stroke="#000000" points="207.5,-211.2 207.5,-234.2 299.5,-234.2 299.5,-211.2 207.5,-211.2"/>
<text text-anchor="start" x="212.5" y="-220.3" font-family="Helvetica,sans-Serif" font-weight="bold" font-size="11.00" fill="#000000">sales</text>
<text text-anchor="start" x="264.5437" y="-219.3" font-family="Helvetica,sans-Serif" font-size="11.00" fill="#000000">[table]</text>
<polygon fill="none" stroke="#000000" points="207.5,-189.2 207.5,-211.2 299.5,-211.2 299.5,-189.2 207.5,-189.2"/>
<text text-anchor="start" x="227.5" y="-196.3" font-family="Helvetica,sans-Serif" font-size="11.00" fill="#000000">order_id</text>
<polygon fill="none" stroke="#000000" points="207.5,-167.2 207.5,-189.2 299.5,-189.2 299.5,-167.2 207.5,-167.2"/>
<image xlink:href="../../images/foreignKeys.png" width="11px" height="12px" preserveAspectRatio="xMinYMin meet" x="212.5" y="-184.2"/>
<text text-anchor="start" x="227.5" y="-174.3" font-family="Helvetica,sans-Serif" font-size="11.00" fill="#000000">user_id</text>
<polygon fill="none" stroke="#000000" points="207.5,-145.2 207.5,-167.2 299.5,-167.2 299.5,-145.2 207.5,-145.2"/>
<image xlink:href="../../images/foreignKeys.png" width="11px" height="12px" preserveAspectRatio="xMinYMin meet" x="212.5" y="-162.2"/>
<text text-anchor="start" x="227.5" y="-152.3" font-family="Helvetica,sans-Serif" font-size="11.00" fill="#000000">product_id</text>
<polygon fill="none" stroke="#000000" points="207.5,-123.2 207.5,-145.2 299.5,-145.2 299.5,-123.2 207.5,-123.2"/>
<text text-anchor="start" x="227.5" y="-130.3" font-family="Helvetica,sans-Serif" font-size="11.00" fill="#000000">date_time</text>
<polygon fill="none" stroke="#000000" points="207.5,-101.2 207.5,-123.2 299.5,-123.2 299.5,-101.2 207.5,-101.2"/>
<text text-anchor="start" x="227.5" y="-108.3" font-family="Helvetica,sans-Serif" font-size="11.00" fill="#000000">quantity</text>
<polygon fill="none" stroke="#000000" points="207.5,-79.2 207.5,-101.2 299.5,-101.2 299.5,-79.2 207.5,-79.2"/>
<text text-anchor="start" x="227.5" y="-86.3" font-family="Helvetica,sans-Serif" font-size="11.00" fill="#000000">revenue</text>
<polygon fill="none" stroke="#000000" points="207.5,-57.2 207.5,-79.2 299.5,-79.2 299.5,-57.2 207.5,-57.2"/>
<text text-anchor="start" x="227.5" y="-64.3" font-family="Helvetica,sans-Serif" font-size="11.00" fill="#000000">is_proper</text>
<polygon fill="#ffffff" stroke="transparent" points="207.5,-38.2 207.5,-57.2 223.5,-57.2 223.5,-38.2 207.5,-38.2"/>
<polygon fill="none" stroke="#000000" points="207.5,-38.2 207.5,-57.2 223.5,-57.2 223.5,-38.2 207.5,-38.2"/>
<text text-anchor="start" x="210.5" y="-44.3" font-family="Helvetica,sans-Serif" font-size="11.00" fill="#000000"> &#160;</text>
<polygon fill="#ffffff" stroke="transparent" points="223.5,-38.2 223.5,-57.2 284.5,-57.2 284.5,-38.2 223.5,-38.2"/>
<polygon fill="none" stroke="#000000" points="223.5,-38.2 223.5,-57.2 284.5,-57.2 284.5,-38.2 223.5,-38.2"/>
<text text-anchor="start" x="227.7089" y="-44.3" font-family="Helvetica,sans-Serif" font-size="11.00" fill="#000000">1,177 rows</text>
<polygon fill="#ffffff" stroke="transparent" points="284.5,-38.2 284.5,-57.2 299.5,-57.2 299.5,-38.2 284.5,-38.2"/>
<polygon fill="none" stroke="#000000" points="284.5,-38.2 284.5,-57.2 299.5,-57.2 299.5,-38.2 284.5,-38.2"/>
<text text-anchor="start" x="290.3862" y="-44.3" font-family="Helvetica,sans-Serif" font-size="11.00" fill="#000000"> &#160;</text>
</a>
</g>
</g>
<!-- sales&#45;&gt;customers -->
<g id="edge2" class="edge">
<title>sales:w&#45;&gt;customers:e</title>
<path fill="none" stroke="#000000" stroke-dasharray="5,2" d="M192.9869,-180.1078C123.1755,-200.8751 225.2734,-384.2 133.5,-384.2"/>
<polygon fill="#000000" stroke="#000000" points="199.5682,-179.2427 207.9692,-181.7693 203.5341,-178.7213 207.5,-178.2 207.5,-178.2 207.5,-178.2 203.5341,-178.7213 207.0308,-174.6307 199.5682,-179.2427 199.5682,-179.2427"/>
<ellipse fill="none" stroke="#000000" cx="196.3955" cy="-179.6598" rx="3.2" ry="3.2"/>
</g>
<!-- sales&#45;&gt;products -->
<g id="edge1" class="edge">
<title>sales:w&#45;&gt;products:e</title>
<path fill="none" stroke="#000000" stroke-dasharray="5,2" d="M192.9193,-156.2C177.1309,-156.2 168.5417,-156.2 147.5,-156.2"/>
<polygon fill="#000000" stroke="#000000" points="199.5,-156.2001 207.5,-159.8 203.5,-156.2 207.5,-156.2 207.5,-156.2 207.5,-156.2 203.5,-156.2 207.5,-152.6 199.5,-156.2001 199.5,-156.2001"/>
<ellipse fill="none" stroke="#000000" cx="196.3" cy="-156.2001" rx="3.2" ry="3.2"/>
</g>
<!-- web_log -->
<g id="node4" class="node">
<title>web_log</title>
<g id="a_node4"><a xlink:href="../../tables/web_log.html" xlink:title="web_log" target="_top">
<polygon fill="#ffffff" stroke="transparent" points="196,-255.2 196,-451.2 311,-451.2 311,-255.2 196,-255.2"/>
<polygon fill="#f5f5f5" stroke="transparent" points="196.5,-428.2 196.5,-451.2 311.5,-451.2 311.5,-428.2 196.5,-428.2"/>
<polygon fill="none" stroke="#000000" points="196.5,-428.2 196.5,-451.2 311.5,-451.2 311.5,-428.2 196.5,-428.2"/>
<text text-anchor="start" x="201.5" y="-437.3" font-family="Helvetica,sans-Serif" font-weight="bold" font-size="11.00" fill="#000000">web_log</text>
<text text-anchor="start" x="276.5437" y="-436.3" font-family="Helvetica,sans-Serif" font-size="11.00" fill="#000000">[table]</text>
<polygon fill="none" stroke="#000000" points="196.5,-406.2 196.5,-428.2 311.5,-428.2 311.5,-406.2 196.5,-406.2"/>
<text text-anchor="start" x="216.5" y="-413.3" font-family="Helvetica,sans-Serif" font-size="11.00" fill="#000000">cid</text>
<polygon fill="none" stroke="#000000" points="196.5,-384.2 196.5,-406.2 311.5,-406.2 311.5,-384.2 196.5,-384.2"/>
<image xlink:href="../../images/foreignKeys.png" width="11px" height="12px" preserveAspectRatio="xMinYMin meet" x="201.5" y="-401.2"/>
<text text-anchor="start" x="216.5" y="-391.3" font-family="Helvetica,sans-Serif" font-size="11.00" fill="#000000">user_id</text>
<polygon fill="none" stroke="#000000" points="196.5,-362.2 196.5,-384.2 311.5,-384.2 311.5,-362.2 196.5,-362.2"/>
<text text-anchor="start" x="216.5" y="-369.3" font-family="Helvetica,sans-Serif" font-size="11.00" fill="#000000">device</text>
<polygon fill="none" stroke="#000000" points="196.5,-340.2 196.5,-362.2 311.5,-362.2 311.5,-340.2 196.5,-340.2"/>
<text text-anchor="start" x="216.5" y="-347.3" font-family="Helvetica,sans-Serif" font-size="11.00" fill="#000000">session_count</text>
<polygon fill="none" stroke="#000000" points="196.5,-318.2 196.5,-340.2 311.5,-340.2 311.5,-318.2 196.5,-318.2"/>
<text text-anchor="start" x="216.5" y="-325.3" font-family="Helvetica,sans-Serif" font-size="11.00" fill="#000000">media</text>
<polygon fill="none" stroke="#000000" points="196.5,-296.2 196.5,-318.2 311.5,-318.2 311.5,-296.2 196.5,-296.2"/>
<text text-anchor="start" x="216.5" y="-303.3" font-family="Helvetica,sans-Serif" font-size="11.00" fill="#000000">date_time</text>
<polygon fill="none" stroke="#000000" points="196.5,-274.2 196.5,-296.2 311.5,-296.2 311.5,-274.2 196.5,-274.2"/>
<text text-anchor="start" x="216.5" y="-281.3" font-family="Helvetica,sans-Serif" font-size="11.00" fill="#000000">page</text>
<polygon fill="#ffffff" stroke="transparent" points="196.5,-255.2 196.5,-274.2 224.5,-274.2 224.5,-255.2 196.5,-255.2"/>
<polygon fill="none" stroke="#000000" points="196.5,-255.2 196.5,-274.2 224.5,-274.2 224.5,-255.2 196.5,-255.2"/>
<text text-anchor="start" x="199.5" y="-261.3" font-family="Helvetica,sans-Serif" font-size="11.00" fill="#000000"> &#160;</text>
<polygon fill="#ffffff" stroke="transparent" points="224.5,-255.2 224.5,-274.2 291.5,-274.2 291.5,-255.2 224.5,-255.2"/>
<polygon fill="none" stroke="#000000" points="224.5,-255.2 224.5,-274.2 291.5,-274.2 291.5,-255.2 224.5,-255.2"/>
<text text-anchor="start" x="234.7089" y="-261.3" font-family="Helvetica,sans-Serif" font-size="11.00" fill="#000000">2,604 rows</text>
<polygon fill="#ffffff" stroke="transparent" points="291.5,-255.2 291.5,-274.2 311.5,-274.2 311.5,-255.2 291.5,-255.2"/>
<polygon fill="none" stroke="#000000" points="291.5,-255.2 291.5,-274.2 311.5,-274.2 311.5,-255.2 291.5,-255.2"/>
<text text-anchor="start" x="302.3862" y="-261.3" font-family="Helvetica,sans-Serif" font-size="11.00" fill="#000000"> &#160;</text>
</a>
</g>
</g>
<!-- web_log&#45;&gt;customers -->
<g id="edge3" class="edge">
<title>web_log:w&#45;&gt;customers:e</title>
<path fill="none" stroke="#000000" stroke-dasharray="5,2" d="M182.0624,-394.1051C164.8234,-391.3227 156.3721,-384.2 133.5,-384.2"/>
<polygon fill="#000000" stroke="#000000" points="188.5229,-394.595 196.2277,-398.7897 192.5115,-394.8975 196.5,-395.2 196.5,-395.2 196.5,-395.2 192.5115,-394.8975 196.7723,-391.6103 188.5229,-394.595 188.5229,-394.595"/>
<ellipse fill="none" stroke="#000000" cx="185.3321" cy="-394.353" rx="3.2" ry="3.2"/>
</g>
</g>
</svg>
