<?xml version="1.0" encoding="UTF-8" standalone="no"?>
<!DOCTYPE svg PUBLIC "-//W3C//DTD SVG 1.1//EN"
 "http://www.w3.org/Graphics/SVG/1.1/DTD/svg11.dtd">
<!-- Generated by graphviz version 2.40.1 (20161225.0304)
 -->
<!-- Title: compactImpliedRelationshipsDiagram Pages: 1 -->
<svg width="327pt" height="259pt"
 viewBox="0.00 0.00 327.00 259.20" xmlns="http://www.w3.org/2000/svg" xmlns:xlink="http://www.w3.org/1999/xlink">
<g id="graph0" class="graph" transform="scale(1 1) rotate(0) translate(4 255.2)">
<title>compactImpliedRelationshipsDiagram</title>
<polygon fill="#ffffff" stroke="transparent" points="-4,4 -4,-255.2 323,-255.2 323,4 -4,4"/>
<text text-anchor="middle" x="72.4936" y="-7.3" font-family="Helvetica,sans-Serif" font-size="11.00" fill="#000000">Generated by SchemaSpy</text>
<!-- customers -->
<g id="node1" class="node">
<title>customers</title>
<g id="a_node1"><a xlink:href="../../tables/customers.html" xlink:title="customers" target="_top">
<polygon fill="#ffffff" stroke="transparent" points="22,-153.2 22,-236.2 133,-236.2 133,-153.2 22,-153.2"/>
<polygon fill="#f5f5f5" stroke="transparent" points="22.5,-212.7 22.5,-235.7 133.5,-235.7 133.5,-212.7 22.5,-212.7"/>
<polygon fill="none" stroke="#000000" points="22.5,-212.7 22.5,-235.7 133.5,-235.7 133.5,-212.7 22.5,-212.7"/>
<text text-anchor="start" x="27.5" y="-221.8" font-family="Helvetica,sans-Serif" font-weight="bold" font-size="11.00" fill="#000000">customers</text>
<text text-anchor="start" x="98.5437" y="-220.8" font-family="Helvetica,sans-Serif" font-size="11.00" fill="#000000">[table]</text>
<polygon fill="none" stroke="#000000" points="22.5,-190.7 22.5,-212.7 133.5,-212.7 133.5,-190.7 22.5,-190.7"/>
<image xlink:href="../../images/primaryKeys.png" width="11px" height="12px" preserveAspectRatio="xMinYMin meet" x="27.5" y="-207.7"/>
<text text-anchor="start" x="42.5" y="-197.8" font-family="Helvetica,sans-Serif" font-size="11.00" fill="#000000">user_id</text>
<polygon fill="none" stroke="#000000" points="22.5,-171.7 22.5,-190.7 133.5,-190.7 133.5,-171.7 22.5,-171.7"/>
<text text-anchor="start" x="25.5" y="-177.8" font-family="Helvetica,sans-Serif" font-size="11.00" fill="#000000">...</text>
<polygon fill="#ffffff" stroke="transparent" points="22.5,-152.7 22.5,-171.7 52.5,-171.7 52.5,-152.7 22.5,-152.7"/>
<polygon fill="none" stroke="#000000" points="22.5,-152.7 22.5,-171.7 52.5,-171.7 52.5,-152.7 22.5,-152.7"/>
<text text-anchor="start" x="25.5" y="-158.8" font-family="Helvetica,sans-Serif" font-size="11.00" fill="#000000"> &#160;</text>
<polygon fill="#ffffff" stroke="transparent" points="52.5,-152.7 52.5,-171.7 111.5,-171.7 111.5,-152.7 52.5,-152.7"/>
<polygon fill="none" stroke="#000000" points="52.5,-152.7 52.5,-171.7 111.5,-171.7 111.5,-152.7 52.5,-152.7"/>
<text text-anchor="start" x="63.8807" y="-158.8" font-family="Helvetica,sans-Serif" font-size="11.00" fill="#000000">497 rows</text>
<polygon fill="#ffffff" stroke="transparent" points="111.5,-152.7 111.5,-171.7 133.5,-171.7 133.5,-152.7 111.5,-152.7"/>
<polygon fill="none" stroke="#000000" points="111.5,-152.7 111.5,-171.7 133.5,-171.7 133.5,-152.7 111.5,-152.7"/>
<text text-anchor="start" x="124.3862" y="-158.8" font-family="Helvetica,sans-Serif" font-size="11.00" fill="#000000"> &#160;</text>
</a>
</g>
</g>
<!-- products -->
<g id="node2" class="node">
<title>products</title>
<g id="a_node2"><a xlink:href="../../tables/products.html" xlink:title="products" target="_top">
<polygon fill="#ffffff" stroke="transparent" points="8,-38.2 8,-121.2 147,-121.2 147,-38.2 8,-38.2"/>
<polygon fill="#f5f5f5" stroke="transparent" points="8.5,-97.7 8.5,-120.7 147.5,-120.7 147.5,-97.7 8.5,-97.7"/>
<polygon fill="none" stroke="#000000" points="8.5,-97.7 8.5,-120.7 147.5,-120.7 147.5,-97.7 8.5,-97.7"/>
<text text-anchor="start" x="13.5" y="-106.8" font-family="Helvetica,sans-Serif" font-weight="bold" font-size="11.00" fill="#000000">products</text>
<text text-anchor="start" x="112.5437" y="-105.8" font-family="Helvetica,sans-Serif" font-size="11.00" fill="#000000">[table]</text>
<polygon fill="none" stroke="#000000" points="8.5,-75.7 8.5,-97.7 147.5,-97.7 147.5,-75.7 8.5,-75.7"/>
<image xlink:href="../../images/primaryKeys.png" width="11px" height="12px" preserveAspectRatio="xMinYMin meet" x="13.5" y="-92.7"/>
<text text-anchor="start" x="28.5" y="-82.8" font-family="Helvetica,sans-Serif" font-size="11.00" fill="#000000">product_id</text>
<polygon fill="none" stroke="#000000" points="8.5,-56.7 8.5,-75.7 147.5,-75.7 147.5,-56.7 8.5,-56.7"/>
<text text-anchor="start" x="11.5" y="-62.8" font-family="Helvetica,sans-Serif" font-size="11.00" fill="#000000">...</text>
<polygon fill="#ffffff" stroke="transparent" points="8.5,-37.7 8.5,-56.7 55.5,-56.7 55.5,-37.7 8.5,-37.7"/>
<polygon fill="none" stroke="#000000" points="8.5,-37.7 8.5,-56.7 55.5,-56.7 55.5,-37.7 8.5,-37.7"/>
<text text-anchor="start" x="11.5" y="-43.8" font-family="Helvetica,sans-Serif" font-size="11.00" fill="#000000"> &#160;</text>
<polygon fill="#ffffff" stroke="transparent" points="55.5,-37.7 55.5,-56.7 117.5,-56.7 117.5,-37.7 55.5,-37.7"/>
<polygon fill="none" stroke="#000000" points="55.5,-37.7 55.5,-56.7 117.5,-56.7 117.5,-37.7 55.5,-37.7"/>
<text text-anchor="start" x="75.9956" y="-43.8" font-family="Helvetica,sans-Serif" font-size="11.00" fill="#000000">15 rows</text>
<polygon fill="#ffffff" stroke="transparent" points="117.5,-37.7 117.5,-56.7 147.5,-56.7 147.5,-37.7 117.5,-37.7"/>
<polygon fill="none" stroke="#000000" points="117.5,-37.7 117.5,-56.7 147.5,-56.7 147.5,-37.7 117.5,-37.7"/>
<text text-anchor="start" x="138.3862" y="-43.8" font-family="Helvetica,sans-Serif" font-size="11.00" fill="#000000"> &#160;</text>
</a>
</g>
</g>
<!-- sales -->
<g id="node3" class="node">
<title>sales</title>
<g id="a_node3"><a xlink:href="../../tables/sales.html" xlink:title="sales" target="_top">
<polygon fill="#ffffff" stroke="transparent" points="207.5,-38.2 207.5,-143.2 299.5,-143.2 299.5,-38.2 207.5,-38.2"/>
<polygon fill="#f5f5f5" stroke="transparent" points="207.5,-119.7 207.5,-142.7 299.5,-142.7 299.5,-119.7 207.5,-119.7"/>
<polygon fill="none" stroke="#000000" points="207.5,-119.7 207.5,-142.7 299.5,-142.7 299.5,-119.7 207.5,-119.7"/>
<text text-anchor="start" x="212.5" y="-128.8" font-family="Helvetica,sans-Serif" font-weight="bold" font-size="11.00" fill="#000000">sales</text>
<text text-anchor="start" x="264.5437" y="-127.8" font-family="Helvetica,sans-Serif" font-size="11.00" fill="#000000">[table]</text>
<polygon fill="none" stroke="#000000" points="207.5,-97.7 207.5,-119.7 299.5,-119.7 299.5,-97.7 207.5,-97.7"/>
<image xlink:href="../../images/foreignKeys.png" width="11px" height="12px" preserveAspectRatio="xMinYMin meet" x="212.5" y="-114.7"/>
<text text-anchor="start" x="227.5" y="-104.8" font-family="Helvetica,sans-Serif" font-size="11.00" fill="#000000">user_id</text>
<polygon fill="none" stroke="#000000" points="207.5,-75.7 207.5,-97.7 299.5,-97.7 299.5,-75.7 207.5,-75.7"/>
<image xlink:href="../../images/foreignKeys.png" width="11px" height="12px" preserveAspectRatio="xMinYMin meet" x="212.5" y="-92.7"/>
<text text-anchor="start" x="227.5" y="-82.8" font-family="Helvetica,sans-Serif" font-size="11.00" fill="#000000">product_id</text>
<polygon fill="none" stroke="#000000" points="207.5,-56.7 207.5,-75.7 299.5,-75.7 299.5,-56.7 207.5,-56.7"/>
<text text-anchor="start" x="210.5" y="-62.8" font-family="Helvetica,sans-Serif" font-size="11.00" fill="#000000">...</text>
<polygon fill="#ffffff" stroke="transparent" points="207.5,-37.7 207.5,-56.7 223.5,-56.7 223.5,-37.7 207.5,-37.7"/>
<polygon fill="none" stroke="#000000" points="207.5,-37.7 207.5,-56.7 223.5,-56.7 223.5,-37.7 207.5,-37.7"/>
<text text-anchor="start" x="210.5" y="-43.8" font-family="Helvetica,sans-Serif" font-size="11.00" fill="#000000"> &#160;</text>
<polygon fill="#ffffff" stroke="transparent" points="223.5,-37.7 223.5,-56.7 284.5,-56.7 284.5,-37.7 223.5,-37.7"/>
<polygon fill="none" stroke="#000000" points="223.5,-37.7 223.5,-56.7 284.5,-56.7 284.5,-37.7 223.5,-37.7"/>
<text text-anchor="start" x="227.7089" y="-43.8" font-family="Helvetica,sans-Serif" font-size="11.00" fill="#000000">1,177 rows</text>
<polygon fill="#ffffff" stroke="transparent" points="284.5,-37.7 284.5,-56.7 299.5,-56.7 299.5,-37.7 284.5,-37.7"/>
<polygon fill="none" stroke="#000000" points="284.5,-37.7 284.5,-56.7 299.5,-56.7 299.5,-37.7 284.5,-37.7"/>
<text text-anchor="start" x="290.3862" y="-43.8" font-family="Helvetica,sans-Serif" font-size="11.00" fill="#000000"> &#160;</text>
</a>
</g>
</g>
<!-- sales&#45;&gt;customers -->
<g id="edge2" class="edge">
<title>sales:w&#45;&gt;customers:e</title>
<path fill="none" stroke="#000000" stroke-dasharray="5,2" d="M192.9782,-111.7943C160.5899,-127.9312 180.5443,-201.7 133.5,-201.7"/>
<polygon fill="#000000" stroke="#000000" points="199.6756,-110.3672 208.2503,-112.221 203.5878,-109.5336 207.5,-108.7 207.5,-108.7 207.5,-108.7 203.5878,-109.5336 206.7497,-105.179 199.6756,-110.3672 199.6756,-110.3672"/>
<ellipse fill="none" stroke="#000000" cx="196.5459" cy="-111.0341" rx="3.2" ry="3.2"/>
</g>
<!-- sales&#45;&gt;products -->
<g id="edge1" class="edge">
<title>sales:w&#45;&gt;products:e</title>
<path fill="none" stroke="#000000" stroke-dasharray="5,2" d="M192.9193,-86.7C177.1309,-86.7 168.5417,-86.7 147.5,-86.7"/>
<polygon fill="#000000" stroke="#000000" points="199.5,-86.7001 207.5,-90.3 203.5,-86.7 207.5,-86.7 207.5,-86.7 207.5,-86.7 203.5,-86.7 207.5,-83.1 199.5,-86.7001 199.5,-86.7001"/>
<ellipse fill="none" stroke="#000000" cx="196.3" cy="-86.7001" rx="3.2" ry="3.2"/>
</g>
<!-- web_log -->
<g id="node4" class="node">
<title>web_log</title>
<g id="a_node4"><a xlink:href="../../tables/web_log.html" xlink:title="web_log" target="_top">
<polygon fill="#ffffff" stroke="transparent" points="196,-164.2 196,-247.2 311,-247.2 311,-164.2 196,-164.2"/>
<polygon fill="#f5f5f5" stroke="transparent" points="196.5,-223.7 196.5,-246.7 311.5,-246.7 311.5,-223.7 196.5,-223.7"/>
<polygon fill="none" stroke="#000000" points="196.5,-223.7 196.5,-246.7 311.5,-246.7 311.5,-223.7 196.5,-223.7"/>
<text text-anchor="start" x="201.5" y="-232.8" font-family="Helvetica,sans-Serif" font-weight="bold" font-size="11.00" fill="#000000">web_log</text>
<text text-anchor="start" x="276.5437" y="-231.8" font-family="Helvetica,sans-Serif" font-size="11.00" fill="#000000">[table]</text>
<polygon fill="none" stroke="#000000" points="196.5,-201.7 196.5,-223.7 311.5,-223.7 311.5,-201.7 196.5,-201.7"/>
<image xlink:href="../../images/foreignKeys.png" width="11px" height="12px" preserveAspectRatio="xMinYMin meet" x="201.5" y="-218.7"/>
<text text-anchor="start" x="216.5" y="-208.8" font-family="Helvetica,sans-Serif" font-size="11.00" fill="#000000">user_id</text>
<polygon fill="none" stroke="#000000" points="196.5,-182.7 196.5,-201.7 311.5,-201.7 311.5,-182.7 196.5,-182.7"/>
<text text-anchor="start" x="199.5" y="-188.8" font-family="Helvetica,sans-Serif" font-size="11.00" fill="#000000">...</text>
<polygon fill="#ffffff" stroke="transparent" points="196.5,-163.7 196.5,-182.7 224.5,-182.7 224.5,-163.7 196.5,-163.7"/>
<polygon fill="none" stroke="#000000" points="196.5,-163.7 196.5,-182.7 224.5,-182.7 224.5,-163.7 196.5,-163.7"/>
<text text-anchor="start" x="199.5" y="-169.8" font-family="Helvetica,sans-Serif" font-size="11.00" fill="#000000"> &#160;</text>
<polygon fill="#ffffff" stroke="transparent" points="224.5,-163.7 224.5,-182.7 291.5,-182.7 291.5,-163.7 224.5,-163.7"/>
<polygon fill="none" stroke="#000000" points="224.5,-163.7 224.5,-182.7 291.5,-182.7 291.5,-163.7 224.5,-163.7"/>
<text text-anchor="start" x="234.7089" y="-169.8" font-family="Helvetica,sans-Serif" font-size="11.00" fill="#000000">2,604 rows</text>
<polygon fill="#ffffff" stroke="transparent" points="291.5,-163.7 291.5,-182.7 311.5,-182.7 311.5,-163.7 291.5,-163.7"/>
<polygon fill="none" stroke="#000000" points="291.5,-163.7 291.5,-182.7 311.5,-182.7 311.5,-163.7 291.5,-163.7"/>
<text text-anchor="start" x="302.3862" y="-169.8" font-family="Helvetica,sans-Serif" font-size="11.00" fill="#000000"> &#160;</text>
</a>
</g>
</g>
<!-- web_log&#45;&gt;customers -->
<g id="edge3" class="edge">
<title>web_log:w&#45;&gt;customers:e</title>
<path fill="none" stroke="#000000" stroke-dasharray="5,2" d="M182.0624,-211.6051C164.8234,-208.8227 156.3721,-201.7 133.5,-201.7"/>
<polygon fill="#000000" stroke="#000000" points="188.5229,-212.095 196.2277,-216.2897 192.5115,-212.3975 196.5,-212.7 196.5,-212.7 196.5,-212.7 192.5115,-212.3975 196.7723,-209.1103 188.5229,-212.095 188.5229,-212.095"/>
<ellipse fill="none" stroke="#000000" cx="185.3321" cy="-211.853" rx="3.2" ry="3.2"/>
</g>
</g>
</svg>
