<?xml version="1.0" encoding="UTF-8" standalone="no"?>
<!DOCTYPE svg PUBLIC "-//W3C//DTD SVG 1.1//EN"
 "http://www.w3.org/Graphics/SVG/1.1/DTD/svg11.dtd">
<!-- Generated by graphviz version 2.40.1 (20161225.0304)
 -->
<!-- Title: oneDegreeRelationshipsDiagram Pages: 1 -->
<svg width="206pt" height="250pt"
 viewBox="0.00 0.00 206.00 250.20" xmlns="http://www.w3.org/2000/svg" xmlns:xlink="http://www.w3.org/1999/xlink">
<g id="graph0" class="graph" transform="scale(1 1) rotate(0) translate(4 246.2)">
<title>oneDegreeRelationshipsDiagram</title>
<polygon fill="#ffffff" stroke="transparent" points="-4,4 -4,-246.2 202,-246.2 202,4 -4,4"/>
<text text-anchor="middle" x="72.4936" y="-7.3" font-family="Helvetica,sans-Serif" font-size="11.00" fill="#000000">Generated by SchemaSpy</text>
<!-- customers -->
<g id="node1" class="node">
<title>customers</title>
<g id="a_node1"><a xlink:href="../../tables/customers.html" xlink:title="customers" target="_top">
<polygon fill="#ffffff" stroke="transparent" points="8,-38.2 8,-238.2 190,-238.2 190,-38.2 8,-38.2"/>
<polygon fill="#f5f5f5" stroke="transparent" points="10,-213.2 10,-236.2 188,-236.2 188,-213.2 10,-213.2"/>
<polygon fill="none" stroke="#000000" points="10,-213.2 10,-236.2 188,-236.2 188,-213.2 10,-213.2"/>
<text text-anchor="start" x="15" y="-222.3" font-family="Helvetica,sans-Serif" font-weight="bold" font-size="11.00" fill="#000000">customers</text>
<text text-anchor="start" x="153.0437" y="-221.3" font-family="Helvetica,sans-Serif" font-size="11.00" fill="#000000">[table]</text>
<polygon fill="none" stroke="#000000" points="10,-191.2 10,-213.2 121,-213.2 121,-191.2 10,-191.2"/>
<image xlink:href="../../images/primaryKeys.png" width="11px" height="12px" preserveAspectRatio="xMinYMin meet" x="15" y="-208.2"/>
<text text-anchor="start" x="30" y="-198.3" font-family="Helvetica,sans-Serif" font-size="11.00" fill="#000000">user_id</text>
<polygon fill="none" stroke="#000000" points="121,-191.2 121,-213.2 188,-213.2 188,-191.2 121,-191.2"/>
<text text-anchor="start" x="124" y="-198.9" font-family="Helvetica,sans-Serif" font-size="11.00" fill="#000000">int[10]</text>
<polygon fill="none" stroke="#000000" points="10,-169.2 10,-191.2 121,-191.2 121,-169.2 10,-169.2"/>
<text text-anchor="start" x="30" y="-176.3" font-family="Helvetica,sans-Serif" font-size="11.00" fill="#000000">name</text>
<polygon fill="none" stroke="#000000" points="121,-169.2 121,-191.2 188,-191.2 188,-169.2 121,-169.2"/>
<text text-anchor="start" x="123.9365" y="-176.9" font-family="Helvetica,sans-Serif" font-size="11.00" fill="#000000">varchar[255]</text>
<polygon fill="none" stroke="#000000" points="10,-147.2 10,-169.2 121,-169.2 121,-147.2 10,-147.2"/>
<text text-anchor="start" x="30" y="-154.3" font-family="Helvetica,sans-Serif" font-size="11.00" fill="#000000">birthday</text>
<polygon fill="none" stroke="#000000" points="121,-147.2 121,-169.2 188,-169.2 188,-147.2 121,-147.2"/>
<text text-anchor="start" x="124" y="-154.9" font-family="Helvetica,sans-Serif" font-size="11.00" fill="#000000">date[10]</text>
<polygon fill="none" stroke="#000000" points="10,-125.2 10,-147.2 121,-147.2 121,-125.2 10,-125.2"/>
<text text-anchor="start" x="30" y="-132.3" font-family="Helvetica,sans-Serif" font-size="11.00" fill="#000000">gender</text>
<polygon fill="none" stroke="#000000" points="121,-125.2 121,-147.2 188,-147.2 188,-125.2 121,-125.2"/>
<text text-anchor="start" x="124" y="-132.9" font-family="Helvetica,sans-Serif" font-size="11.00" fill="#000000">int[10]</text>
<polygon fill="none" stroke="#000000" points="10,-103.2 10,-125.2 121,-125.2 121,-103.2 10,-103.2"/>
<text text-anchor="start" x="30" y="-110.3" font-family="Helvetica,sans-Serif" font-size="11.00" fill="#000000">prefecture</text>
<polygon fill="none" stroke="#000000" points="121,-103.2 121,-125.2 188,-125.2 188,-103.2 121,-103.2"/>
<text text-anchor="start" x="123.9365" y="-110.9" font-family="Helvetica,sans-Serif" font-size="11.00" fill="#000000">varchar[255]</text>
<polygon fill="none" stroke="#000000" points="10,-81.2 10,-103.2 121,-103.2 121,-81.2 10,-81.2"/>
<text text-anchor="start" x="30" y="-88.3" font-family="Helvetica,sans-Serif" font-size="11.00" fill="#000000">register_date</text>
<polygon fill="none" stroke="#000000" points="121,-81.2 121,-103.2 188,-103.2 188,-81.2 121,-81.2"/>
<text text-anchor="start" x="124" y="-88.9" font-family="Helvetica,sans-Serif" font-size="11.00" fill="#000000">date[10]</text>
<polygon fill="none" stroke="#000000" points="10,-59.2 10,-81.2 121,-81.2 121,-59.2 10,-59.2"/>
<text text-anchor="start" x="30" y="-66.3" font-family="Helvetica,sans-Serif" font-size="11.00" fill="#000000">is_premium</text>
<polygon fill="none" stroke="#000000" points="121,-59.2 121,-81.2 188,-81.2 188,-59.2 121,-59.2"/>
<text text-anchor="start" x="124" y="-66.9" font-family="Helvetica,sans-Serif" font-size="11.00" fill="#000000">bit[0]</text>
<polygon fill="#ffffff" stroke="transparent" points="10,-40.2 10,-59.2 51,-59.2 51,-40.2 10,-40.2"/>
<polygon fill="none" stroke="#000000" points="10,-40.2 10,-59.2 51,-59.2 51,-40.2 10,-40.2"/>
<text text-anchor="start" x="13" y="-46.3" font-family="Helvetica,sans-Serif" font-size="11.00" fill="#000000">&lt; 0</text>
<polygon fill="#ffffff" stroke="transparent" points="51,-40.2 51,-59.2 121,-59.2 121,-40.2 51,-40.2"/>
<polygon fill="none" stroke="#000000" points="51,-40.2 51,-59.2 121,-59.2 121,-40.2 51,-40.2"/>
<text text-anchor="start" x="73.3807" y="-46.3" font-family="Helvetica,sans-Serif" font-size="11.00" fill="#000000">497 rows</text>
<polygon fill="#ffffff" stroke="transparent" points="121,-40.2 121,-59.2 188,-59.2 188,-40.2 121,-40.2"/>
<polygon fill="none" stroke="#000000" points="121,-40.2 121,-59.2 188,-59.2 188,-40.2 121,-40.2"/>
<text text-anchor="start" x="169.4053" y="-46.3" font-family="Helvetica,sans-Serif" font-size="11.00" fill="#000000">0 &gt;</text>
<polygon fill="none" stroke="#000000" stroke-width="2" points="9,-39.2 9,-237.2 189,-237.2 189,-39.2 9,-39.2"/>
</a>
</g>
</g>
</g>
</svg>
