<?xml version="1.0" encoding="UTF-8" standalone="no"?>
<!DOCTYPE svg PUBLIC "-//W3C//DTD SVG 1.1//EN"
 "http://www.w3.org/Graphics/SVG/1.1/DTD/svg11.dtd">
<!-- Generated by graphviz version 2.40.1 (20161225.0304)
 -->
<!-- Title: twoDegreesRelationshipsDiagramImplied Pages: 1 -->
<svg width="375pt" height="267pt"
 viewBox="0.00 0.00 375.00 266.70" xmlns="http://www.w3.org/2000/svg" xmlns:xlink="http://www.w3.org/1999/xlink">
<g id="graph0" class="graph" transform="scale(1 1) rotate(0) translate(4 262.7)">
<title>twoDegreesRelationshipsDiagramImplied</title>
<polygon fill="#ffffff" stroke="transparent" points="-4,4 -4,-262.7 371,-262.7 371,4 -4,4"/>
<text text-anchor="middle" x="72.4936" y="-7.3" font-family="Helvetica,sans-Serif" font-size="11.00" fill="#000000">Generated by SchemaSpy</text>
<!-- sales -->
<g id="node1" class="node">
<title>sales</title>
<g id="a_node1"><a xlink:href="../../tables/sales.html" xlink:title="sales" target="_top">
<polygon fill="#ffffff" stroke="transparent" points="267,-118.7 267,-223.7 359,-223.7 359,-118.7 267,-118.7"/>
<polygon fill="#f5f5f5" stroke="transparent" points="267,-200.2 267,-223.2 359,-223.2 359,-200.2 267,-200.2"/>
<polygon fill="none" stroke="#000000" points="267,-200.2 267,-223.2 359,-223.2 359,-200.2 267,-200.2"/>
<text text-anchor="start" x="272" y="-209.3" font-family="Helvetica,sans-Serif" font-weight="bold" font-size="11.00" fill="#000000">sales</text>
<text text-anchor="start" x="324.0437" y="-208.3" font-family="Helvetica,sans-Serif" font-size="11.00" fill="#000000">[table]</text>
<polygon fill="none" stroke="#000000" points="267,-178.2 267,-200.2 359,-200.2 359,-178.2 267,-178.2"/>
<image xlink:href="../../images/foreignKeys.png" width="11px" height="12px" preserveAspectRatio="xMinYMin meet" x="272" y="-195.2"/>
<text text-anchor="start" x="287" y="-185.3" font-family="Helvetica,sans-Serif" font-size="11.00" fill="#000000">user_id</text>
<polygon fill="none" stroke="#000000" points="267,-156.2 267,-178.2 359,-178.2 359,-156.2 267,-156.2"/>
<image xlink:href="../../images/foreignKeys.png" width="11px" height="12px" preserveAspectRatio="xMinYMin meet" x="272" y="-173.2"/>
<text text-anchor="start" x="287" y="-163.3" font-family="Helvetica,sans-Serif" font-size="11.00" fill="#000000">product_id</text>
<polygon fill="none" stroke="#000000" points="267,-137.2 267,-156.2 359,-156.2 359,-137.2 267,-137.2"/>
<text text-anchor="start" x="270" y="-143.3" font-family="Helvetica,sans-Serif" font-size="11.00" fill="#000000">...</text>
<polygon fill="#ffffff" stroke="transparent" points="267,-118.2 267,-137.2 288,-137.2 288,-118.2 267,-118.2"/>
<polygon fill="none" stroke="#000000" points="267,-118.2 267,-137.2 288,-137.2 288,-118.2 267,-118.2"/>
<text text-anchor="start" x="269.7027" y="-124.3" font-family="Helvetica,sans-Serif" font-size="11.00" fill="#000000">&lt; 2</text>
<polygon fill="#ffffff" stroke="transparent" points="288,-118.2 288,-137.2 347,-137.2 347,-118.2 288,-118.2"/>
<polygon fill="none" stroke="#000000" points="288,-118.2 288,-137.2 347,-137.2 347,-118.2 288,-118.2"/>
<text text-anchor="start" x="290.6045" y="-124.3" font-family="Helvetica,sans-Serif" font-size="11.00" fill="#000000">1,177 rows</text>
<polygon fill="#ffffff" stroke="transparent" points="347,-118.2 347,-137.2 359,-137.2 359,-118.2 347,-118.2"/>
<polygon fill="none" stroke="#000000" points="347,-118.2 347,-137.2 359,-137.2 359,-118.2 347,-118.2"/>
<text text-anchor="start" x="349.9431" y="-124.3" font-family="Helvetica,sans-Serif" font-size="11.00" fill="#000000"> &#160;</text>
</a>
</g>
</g>
<!-- products -->
<g id="node2" class="node">
<title>products</title>
<g id="a_node2"><a xlink:href="../../tables/products.html" xlink:title="products" target="_top">
<polygon fill="#ffffff" stroke="transparent" points="8,-38.2 8,-172.2 218,-172.2 218,-38.2 8,-38.2"/>
<polygon fill="#f5f5f5" stroke="transparent" points="10,-147.2 10,-170.2 216,-170.2 216,-147.2 10,-147.2"/>
<polygon fill="none" stroke="#000000" points="10,-147.2 10,-170.2 216,-170.2 216,-147.2 10,-147.2"/>
<text text-anchor="start" x="15" y="-156.3" font-family="Helvetica,sans-Serif" font-weight="bold" font-size="11.00" fill="#000000">products</text>
<text text-anchor="start" x="181.0437" y="-155.3" font-family="Helvetica,sans-Serif" font-size="11.00" fill="#000000">[table]</text>
<polygon fill="none" stroke="#000000" points="10,-125.2 10,-147.2 149,-147.2 149,-125.2 10,-125.2"/>
<image xlink:href="../../images/primaryKeys.png" width="11px" height="12px" preserveAspectRatio="xMinYMin meet" x="15" y="-142.2"/>
<text text-anchor="start" x="30" y="-132.3" font-family="Helvetica,sans-Serif" font-size="11.00" fill="#000000">product_id</text>
<polygon fill="none" stroke="#000000" points="149,-125.2 149,-147.2 216,-147.2 216,-125.2 149,-125.2"/>
<text text-anchor="start" x="152" y="-132.9" font-family="Helvetica,sans-Serif" font-size="11.00" fill="#000000">int[10]</text>
<polygon fill="none" stroke="#000000" points="10,-103.2 10,-125.2 149,-125.2 149,-103.2 10,-103.2"/>
<text text-anchor="start" x="30" y="-110.3" font-family="Helvetica,sans-Serif" font-size="11.00" fill="#000000">product_name</text>
<polygon fill="none" stroke="#000000" points="149,-103.2 149,-125.2 216,-125.2 216,-103.2 149,-103.2"/>
<text text-anchor="start" x="151.9365" y="-110.9" font-family="Helvetica,sans-Serif" font-size="11.00" fill="#000000">varchar[255]</text>
<polygon fill="none" stroke="#000000" points="10,-81.2 10,-103.2 149,-103.2 149,-81.2 10,-81.2"/>
<text text-anchor="start" x="30" y="-88.3" font-family="Helvetica,sans-Serif" font-size="11.00" fill="#000000">product_category</text>
<polygon fill="none" stroke="#000000" points="149,-81.2 149,-103.2 216,-103.2 216,-81.2 149,-81.2"/>
<text text-anchor="start" x="151.9365" y="-88.9" font-family="Helvetica,sans-Serif" font-size="11.00" fill="#000000">varchar[255]</text>
<polygon fill="none" stroke="#000000" points="10,-59.2 10,-81.2 149,-81.2 149,-59.2 10,-59.2"/>
<text text-anchor="start" x="30" y="-66.3" font-family="Helvetica,sans-Serif" font-size="11.00" fill="#000000">cost</text>
<polygon fill="none" stroke="#000000" points="149,-59.2 149,-81.2 216,-81.2 216,-59.2 149,-59.2"/>
<text text-anchor="start" x="152" y="-66.9" font-family="Helvetica,sans-Serif" font-size="11.00" fill="#000000">int[10]</text>
<polygon fill="#ffffff" stroke="transparent" points="10,-40.2 10,-59.2 68,-59.2 68,-40.2 10,-40.2"/>
<polygon fill="none" stroke="#000000" points="10,-40.2 10,-59.2 68,-59.2 68,-40.2 10,-40.2"/>
<text text-anchor="start" x="13" y="-46.3" font-family="Helvetica,sans-Serif" font-size="11.00" fill="#000000">&lt; 0</text>
<polygon fill="#ffffff" stroke="transparent" points="68,-40.2 68,-59.2 149,-59.2 149,-40.2 68,-40.2"/>
<polygon fill="none" stroke="#000000" points="68,-40.2 68,-59.2 149,-59.2 149,-40.2 68,-40.2"/>
<text text-anchor="start" x="107.4956" y="-46.3" font-family="Helvetica,sans-Serif" font-size="11.00" fill="#000000">15 rows</text>
<polygon fill="#ffffff" stroke="transparent" points="149,-40.2 149,-59.2 216,-59.2 216,-40.2 149,-40.2"/>
<polygon fill="none" stroke="#000000" points="149,-40.2 149,-59.2 216,-59.2 216,-40.2 149,-40.2"/>
<text text-anchor="start" x="197.4053" y="-46.3" font-family="Helvetica,sans-Serif" font-size="11.00" fill="#000000">1 &gt;</text>
<polygon fill="none" stroke="#000000" stroke-width="2" points="9,-39.2 9,-171.2 217,-171.2 217,-39.2 9,-39.2"/>
</a>
</g>
</g>
<!-- sales&#45;&gt;products -->
<g id="edge1" class="edge">
<title>sales:w&#45;&gt;products:e</title>
<path fill="none" stroke="#000000" stroke-dasharray="5,2" d="M253.0967,-163.3988C240.0044,-155.1209 236.7231,-136.2 216,-136.2"/>
<polygon fill="#000000" stroke="#000000" points="259.2832,-165.0902 266.0506,-170.6726 263.1416,-166.1451 267,-167.2 267,-167.2 267,-167.2 263.1416,-166.1451 267.9494,-163.7274 259.2832,-165.0902 259.2832,-165.0902"/>
<ellipse fill="none" stroke="#000000" cx="256.1965" cy="-164.2462" rx="3.2" ry="3.2"/>
</g>
<!-- customers -->
<g id="node3" class="node">
<title>customers</title>
<g id="a_node3"><a xlink:href="../../tables/customers.html" xlink:title="customers" target="_top">
<polygon fill="#ffffff" stroke="transparent" points="66.5,-193.7 66.5,-254.7 159.5,-254.7 159.5,-193.7 66.5,-193.7"/>
<polygon fill="#f5f5f5" stroke="transparent" points="67,-231.2 67,-254.2 160,-254.2 160,-231.2 67,-231.2"/>
<polygon fill="none" stroke="#000000" points="67,-231.2 67,-254.2 160,-254.2 160,-231.2 67,-231.2"/>
<text text-anchor="start" x="71.6373" y="-240.3" font-family="Helvetica,sans-Serif" font-weight="bold" font-size="11.00" fill="#000000">customers</text>
<text text-anchor="start" x="125.5219" y="-239.3" font-family="Helvetica,sans-Serif" font-size="11.00" fill="#000000">[table]</text>
<polygon fill="none" stroke="#000000" points="67,-212.2 67,-231.2 160,-231.2 160,-212.2 67,-212.2"/>
<text text-anchor="start" x="70" y="-218.3" font-family="Helvetica,sans-Serif" font-size="11.00" fill="#000000">...</text>
<polygon fill="#ffffff" stroke="transparent" points="67,-193.2 67,-212.2 84,-212.2 84,-193.2 67,-193.2"/>
<polygon fill="none" stroke="#000000" points="67,-193.2 67,-212.2 84,-212.2 84,-193.2 67,-193.2"/>
<text text-anchor="start" x="70" y="-199.3" font-family="Helvetica,sans-Serif" font-size="11.00" fill="#000000"> &#160;</text>
<polygon fill="#ffffff" stroke="transparent" points="84,-193.2 84,-212.2 136,-212.2 136,-193.2 84,-193.2"/>
<polygon fill="none" stroke="#000000" points="84,-193.2 84,-212.2 136,-212.2 136,-193.2 84,-193.2"/>
<text text-anchor="start" x="88.3807" y="-199.3" font-family="Helvetica,sans-Serif" font-size="11.00" fill="#000000">497 rows</text>
<polygon fill="#ffffff" stroke="transparent" points="136,-193.2 136,-212.2 160,-212.2 160,-193.2 136,-193.2"/>
<polygon fill="none" stroke="#000000" points="136,-193.2 136,-212.2 160,-212.2 160,-193.2 136,-193.2"/>
<text text-anchor="start" x="141.4053" y="-199.3" font-family="Helvetica,sans-Serif" font-size="11.00" fill="#000000">2 &gt;</text>
</a>
</g>
</g>
<!-- sales&#45;&gt;customers -->
<g id="edge2" class="edge">
<title>sales:w&#45;&gt;customers:e</title>
<path fill="none" stroke="#000000" stroke-dasharray="5,2" d="M252.5949,-190.1928C215.2673,-195.594 204.4016,-221.2 160,-221.2"/>
<polygon fill="#000000" stroke="#000000" points="259.0189,-189.7501 267.2475,-192.7915 263.0095,-189.475 267,-189.2 267,-189.2 267,-189.2 263.0095,-189.475 266.7525,-185.6085 259.0189,-189.7501 259.0189,-189.7501"/>
<ellipse fill="none" stroke="#000000" cx="255.8265" cy="-189.9701" rx="3.2" ry="3.2"/>
</g>
</g>
</svg>
