<?xml version="1.0" encoding="UTF-8" standalone="no"?>
<!DOCTYPE svg PUBLIC "-//W3C//DTD SVG 1.1//EN"
 "http://www.w3.org/Graphics/SVG/1.1/DTD/svg11.dtd">
<!-- Generated by graphviz version 2.40.1 (20161225.0304)
 -->
<!-- Title: oneDegreeRelationshipsDiagramImplied Pages: 1 -->
<svg width="375pt" height="205pt"
 viewBox="0.00 0.00 375.00 204.70" xmlns="http://www.w3.org/2000/svg" xmlns:xlink="http://www.w3.org/1999/xlink">
<g id="graph0" class="graph" transform="scale(1 1) rotate(0) translate(4 200.7)">
<title>oneDegreeRelationshipsDiagramImplied</title>
<polygon fill="#ffffff" stroke="transparent" points="-4,4 -4,-200.7 371,-200.7 371,4 -4,4"/>
<text text-anchor="middle" x="72.4936" y="-7.3" font-family="Helvetica,sans-Serif" font-size="11.00" fill="#000000">Generated by SchemaSpy</text>
<!-- sales -->
<g id="node1" class="node">
<title>sales</title>
<g id="a_node1"><a xlink:href="../../tables/sales.html" xlink:title="sales" target="_top">
<polygon fill="#ffffff" stroke="transparent" points="267,-87.7 267,-192.7 359,-192.7 359,-87.7 267,-87.7"/>
<polygon fill="#f5f5f5" stroke="transparent" points="267,-169.2 267,-192.2 359,-192.2 359,-169.2 267,-169.2"/>
<polygon fill="none" stroke="#000000" points="267,-169.2 267,-192.2 359,-192.2 359,-169.2 267,-169.2"/>
<text text-anchor="start" x="272" y="-178.3" font-family="Helvetica,sans-Serif" font-weight="bold" font-size="11.00" fill="#000000">sales</text>
<text text-anchor="start" x="324.0437" y="-177.3" font-family="Helvetica,sans-Serif" font-size="11.00" fill="#000000">[table]</text>
<polygon fill="none" stroke="#000000" points="267,-147.2 267,-169.2 359,-169.2 359,-147.2 267,-147.2"/>
<image xlink:href="../../images/foreignKeys.png" width="11px" height="12px" preserveAspectRatio="xMinYMin meet" x="272" y="-164.2"/>
<text text-anchor="start" x="287" y="-154.3" font-family="Helvetica,sans-Serif" font-size="11.00" fill="#000000">user_id</text>
<polygon fill="none" stroke="#000000" points="267,-125.2 267,-147.2 359,-147.2 359,-125.2 267,-125.2"/>
<image xlink:href="../../images/foreignKeys.png" width="11px" height="12px" preserveAspectRatio="xMinYMin meet" x="272" y="-142.2"/>
<text text-anchor="start" x="287" y="-132.3" font-family="Helvetica,sans-Serif" font-size="11.00" fill="#000000">product_id</text>
<polygon fill="none" stroke="#000000" points="267,-106.2 267,-125.2 359,-125.2 359,-106.2 267,-106.2"/>
<text text-anchor="start" x="270" y="-112.3" font-family="Helvetica,sans-Serif" font-size="11.00" fill="#000000">...</text>
<polygon fill="#ffffff" stroke="transparent" points="267,-87.2 267,-106.2 288,-106.2 288,-87.2 267,-87.2"/>
<polygon fill="none" stroke="#000000" points="267,-87.2 267,-106.2 288,-106.2 288,-87.2 267,-87.2"/>
<text text-anchor="start" x="269.7027" y="-93.3" font-family="Helvetica,sans-Serif" font-size="11.00" fill="#000000">&lt; 2</text>
<polygon fill="#ffffff" stroke="transparent" points="288,-87.2 288,-106.2 347,-106.2 347,-87.2 288,-87.2"/>
<polygon fill="none" stroke="#000000" points="288,-87.2 288,-106.2 347,-106.2 347,-87.2 288,-87.2"/>
<text text-anchor="start" x="290.6045" y="-93.3" font-family="Helvetica,sans-Serif" font-size="11.00" fill="#000000">1,177 rows</text>
<polygon fill="#ffffff" stroke="transparent" points="347,-87.2 347,-106.2 359,-106.2 359,-87.2 347,-87.2"/>
<polygon fill="none" stroke="#000000" points="347,-87.2 347,-106.2 359,-106.2 359,-87.2 347,-87.2"/>
<text text-anchor="start" x="349.9431" y="-93.3" font-family="Helvetica,sans-Serif" font-size="11.00" fill="#000000"> &#160;</text>
</a>
</g>
</g>
<!-- products -->
<g id="node2" class="node">
<title>products</title>
<g id="a_node2"><a xlink:href="../../tables/products.html" xlink:title="products" target="_top">
<polygon fill="#ffffff" stroke="transparent" points="8,-38.2 8,-172.2 218,-172.2 218,-38.2 8,-38.2"/>
<polygon fill="#f5f5f5" stroke="transparent" points="10,-147.2 10,-170.2 216,-170.2 216,-147.2 10,-147.2"/>
<polygon fill="none" stroke="#000000" points="10,-147.2 10,-170.2 216,-170.2 216,-147.2 10,-147.2"/>
<text text-anchor="start" x="15" y="-156.3" font-family="Helvetica,sans-Serif" font-weight="bold" font-size="11.00" fill="#000000">products</text>
<text text-anchor="start" x="181.0437" y="-155.3" font-family="Helvetica,sans-Serif" font-size="11.00" fill="#000000">[table]</text>
<polygon fill="none" stroke="#000000" points="10,-125.2 10,-147.2 149,-147.2 149,-125.2 10,-125.2"/>
<image xlink:href="../../images/primaryKeys.png" width="11px" height="12px" preserveAspectRatio="xMinYMin meet" x="15" y="-142.2"/>
<text text-anchor="start" x="30" y="-132.3" font-family="Helvetica,sans-Serif" font-size="11.00" fill="#000000">product_id</text>
<polygon fill="none" stroke="#000000" points="149,-125.2 149,-147.2 216,-147.2 216,-125.2 149,-125.2"/>
<text text-anchor="start" x="152" y="-132.9" font-family="Helvetica,sans-Serif" font-size="11.00" fill="#000000">int[10]</text>
<polygon fill="none" stroke="#000000" points="10,-103.2 10,-125.2 149,-125.2 149,-103.2 10,-103.2"/>
<text text-anchor="start" x="30" y="-110.3" font-family="Helvetica,sans-Serif" font-size="11.00" fill="#000000">product_name</text>
<polygon fill="none" stroke="#000000" points="149,-103.2 149,-125.2 216,-125.2 216,-103.2 149,-103.2"/>
<text text-anchor="start" x="151.9365" y="-110.9" font-family="Helvetica,sans-Serif" font-size="11.00" fill="#000000">varchar[255]</text>
<polygon fill="none" stroke="#000000" points="10,-81.2 10,-103.2 149,-103.2 149,-81.2 10,-81.2"/>
<text text-anchor="start" x="30" y="-88.3" font-family="Helvetica,sans-Serif" font-size="11.00" fill="#000000">product_category</text>
<polygon fill="none" stroke="#000000" points="149,-81.2 149,-103.2 216,-103.2 216,-81.2 149,-81.2"/>
<text text-anchor="start" x="151.9365" y="-88.9" font-family="Helvetica,sans-Serif" font-size="11.00" fill="#000000">varchar[255]</text>
<polygon fill="none" stroke="#000000" points="10,-59.2 10,-81.2 149,-81.2 149,-59.2 10,-59.2"/>
<text text-anchor="start" x="30" y="-66.3" font-family="Helvetica,sans-Serif" font-size="11.00" fill="#000000">cost</text>
<polygon fill="none" stroke="#000000" points="149,-59.2 149,-81.2 216,-81.2 216,-59.2 149,-59.2"/>
<text text-anchor="start" x="152" y="-66.9" font-family="Helvetica,sans-Serif" font-size="11.00" fill="#000000">int[10]</text>
<polygon fill="#ffffff" stroke="transparent" points="10,-40.2 10,-59.2 68,-59.2 68,-40.2 10,-40.2"/>
<polygon fill="none" stroke="#000000" points="10,-40.2 10,-59.2 68,-59.2 68,-40.2 10,-40.2"/>
<text text-anchor="start" x="13" y="-46.3" font-family="Helvetica,sans-Serif" font-size="11.00" fill="#000000">&lt; 0</text>
<polygon fill="#ffffff" stroke="transparent" points="68,-40.2 68,-59.2 149,-59.2 149,-40.2 68,-40.2"/>
<polygon fill="none" stroke="#000000" points="68,-40.2 68,-59.2 149,-59.2 149,-40.2 68,-40.2"/>
<text text-anchor="start" x="107.4956" y="-46.3" font-family="Helvetica,sans-Serif" font-size="11.00" fill="#000000">15 rows</text>
<polygon fill="#ffffff" stroke="transparent" points="149,-40.2 149,-59.2 216,-59.2 216,-40.2 149,-40.2"/>
<polygon fill="none" stroke="#000000" points="149,-40.2 149,-59.2 216,-59.2 216,-40.2 149,-40.2"/>
<text text-anchor="start" x="197.4053" y="-46.3" font-family="Helvetica,sans-Serif" font-size="11.00" fill="#000000">1 &gt;</text>
<polygon fill="none" stroke="#000000" stroke-width="2" points="9,-39.2 9,-171.2 217,-171.2 217,-39.2 9,-39.2"/>
</a>
</g>
</g>
<!-- sales&#45;&gt;products -->
<g id="edge1" class="edge">
<title>sales:w&#45;&gt;products:e</title>
<path fill="none" stroke="#000000" stroke-dasharray="5,2" d="M252.276,-136.2C240.2815,-136.2 232.8229,-136.2 216,-136.2"/>
<polygon fill="#000000" stroke="#000000" points="259,-136.2001 267,-139.8 263,-136.2 267,-136.2 267,-136.2 267,-136.2 263,-136.2 267,-132.6 259,-136.2001 259,-136.2001"/>
<ellipse fill="none" stroke="#000000" cx="255.8" cy="-136.2001" rx="3.2" ry="3.2"/>
</g>
</g>
</svg>
