<?xml version="1.0" encoding="UTF-8" standalone="no"?>
<!DOCTYPE svg PUBLIC "-//W3C//DTD SVG 1.1//EN"
 "http://www.w3.org/Graphics/SVG/1.1/DTD/svg11.dtd">
<!-- Generated by graphviz version 2.40.1 (20161225.0304)
 -->
<!-- Title: oneDegreeRelationshipsDiagramImplied Pages: 1 -->
<svg width="370pt" height="250pt"
 viewBox="0.00 0.00 370.00 250.20" xmlns="http://www.w3.org/2000/svg" xmlns:xlink="http://www.w3.org/1999/xlink">
<g id="graph0" class="graph" transform="scale(1 1) rotate(0) translate(4 246.2)">
<title>oneDegreeRelationshipsDiagramImplied</title>
<polygon fill="#ffffff" stroke="transparent" points="-4,4 -4,-246.2 366,-246.2 366,4 -4,4"/>
<text text-anchor="middle" x="72.4936" y="-7.3" font-family="Helvetica,sans-Serif" font-size="11.00" fill="#000000">Generated by SchemaSpy</text>
<!-- web_log -->
<g id="node1" class="node">
<title>web_log</title>
<g id="a_node1"><a xlink:href="../../tables/web_log.html" xlink:title="web_log" target="_top">
<polygon fill="#ffffff" stroke="transparent" points="168,-38.2 168,-238.2 354,-238.2 354,-38.2 168,-38.2"/>
<polygon fill="#f5f5f5" stroke="transparent" points="170,-213.2 170,-236.2 352,-236.2 352,-213.2 170,-213.2"/>
<polygon fill="none" stroke="#000000" points="170,-213.2 170,-236.2 352,-236.2 352,-213.2 170,-213.2"/>
<text text-anchor="start" x="175" y="-222.3" font-family="Helvetica,sans-Serif" font-weight="bold" font-size="11.00" fill="#000000">web_log</text>
<text text-anchor="start" x="317.0437" y="-221.3" font-family="Helvetica,sans-Serif" font-size="11.00" fill="#000000">[table]</text>
<polygon fill="none" stroke="#000000" points="170,-191.2 170,-213.2 285,-213.2 285,-191.2 170,-191.2"/>
<text text-anchor="start" x="190" y="-198.3" font-family="Helvetica,sans-Serif" font-size="11.00" fill="#000000">cid</text>
<polygon fill="none" stroke="#000000" points="285,-191.2 285,-213.2 352,-213.2 352,-191.2 285,-191.2"/>
<text text-anchor="start" x="287.9365" y="-198.9" font-family="Helvetica,sans-Serif" font-size="11.00" fill="#000000">varchar[255]</text>
<polygon fill="none" stroke="#000000" points="170,-169.2 170,-191.2 285,-191.2 285,-169.2 170,-169.2"/>
<image xlink:href="../../images/foreignKeys.png" width="11px" height="12px" preserveAspectRatio="xMinYMin meet" x="175" y="-186.2"/>
<text text-anchor="start" x="190" y="-176.3" font-family="Helvetica,sans-Serif" font-size="11.00" fill="#000000">user_id</text>
<polygon fill="none" stroke="#000000" points="285,-169.2 285,-191.2 352,-191.2 352,-169.2 285,-169.2"/>
<text text-anchor="start" x="288" y="-176.9" font-family="Helvetica,sans-Serif" font-size="11.00" fill="#000000">int[10]</text>
<polygon fill="none" stroke="#000000" points="170,-147.2 170,-169.2 285,-169.2 285,-147.2 170,-147.2"/>
<text text-anchor="start" x="190" y="-154.3" font-family="Helvetica,sans-Serif" font-size="11.00" fill="#000000">device</text>
<polygon fill="none" stroke="#000000" points="285,-147.2 285,-169.2 352,-169.2 352,-147.2 285,-147.2"/>
<text text-anchor="start" x="287.9365" y="-154.9" font-family="Helvetica,sans-Serif" font-size="11.00" fill="#000000">varchar[255]</text>
<polygon fill="none" stroke="#000000" points="170,-125.2 170,-147.2 285,-147.2 285,-125.2 170,-125.2"/>
<text text-anchor="start" x="190" y="-132.3" font-family="Helvetica,sans-Serif" font-size="11.00" fill="#000000">session_count</text>
<polygon fill="none" stroke="#000000" points="285,-125.2 285,-147.2 352,-147.2 352,-125.2 285,-125.2"/>
<text text-anchor="start" x="288" y="-132.9" font-family="Helvetica,sans-Serif" font-size="11.00" fill="#000000">int[10]</text>
<polygon fill="none" stroke="#000000" points="170,-103.2 170,-125.2 285,-125.2 285,-103.2 170,-103.2"/>
<text text-anchor="start" x="190" y="-110.3" font-family="Helvetica,sans-Serif" font-size="11.00" fill="#000000">media</text>
<polygon fill="none" stroke="#000000" points="285,-103.2 285,-125.2 352,-125.2 352,-103.2 285,-103.2"/>
<text text-anchor="start" x="287.9365" y="-110.9" font-family="Helvetica,sans-Serif" font-size="11.00" fill="#000000">varchar[255]</text>
<polygon fill="none" stroke="#000000" points="170,-81.2 170,-103.2 285,-103.2 285,-81.2 170,-81.2"/>
<text text-anchor="start" x="190" y="-88.3" font-family="Helvetica,sans-Serif" font-size="11.00" fill="#000000">date_time</text>
<polygon fill="none" stroke="#000000" points="285,-81.2 285,-103.2 352,-103.2 352,-81.2 285,-81.2"/>
<text text-anchor="start" x="288" y="-88.9" font-family="Helvetica,sans-Serif" font-size="11.00" fill="#000000">date[10]</text>
<polygon fill="none" stroke="#000000" points="170,-59.2 170,-81.2 285,-81.2 285,-59.2 170,-59.2"/>
<text text-anchor="start" x="190" y="-66.3" font-family="Helvetica,sans-Serif" font-size="11.00" fill="#000000">page</text>
<polygon fill="none" stroke="#000000" points="285,-59.2 285,-81.2 352,-81.2 352,-59.2 285,-59.2"/>
<text text-anchor="start" x="287.9365" y="-66.9" font-family="Helvetica,sans-Serif" font-size="11.00" fill="#000000">varchar[255]</text>
<polygon fill="#ffffff" stroke="transparent" points="170,-40.2 170,-59.2 208,-59.2 208,-40.2 170,-40.2"/>
<polygon fill="none" stroke="#000000" points="170,-40.2 170,-59.2 208,-59.2 208,-40.2 170,-40.2"/>
<text text-anchor="start" x="173" y="-46.3" font-family="Helvetica,sans-Serif" font-size="11.00" fill="#000000">&lt; 1</text>
<polygon fill="#ffffff" stroke="transparent" points="208,-40.2 208,-59.2 285,-59.2 285,-40.2 208,-40.2"/>
<polygon fill="none" stroke="#000000" points="208,-40.2 208,-59.2 285,-59.2 285,-40.2 208,-40.2"/>
<text text-anchor="start" x="228.2089" y="-46.3" font-family="Helvetica,sans-Serif" font-size="11.00" fill="#000000">2,604 rows</text>
<polygon fill="#ffffff" stroke="transparent" points="285,-40.2 285,-59.2 352,-59.2 352,-40.2 285,-40.2"/>
<polygon fill="none" stroke="#000000" points="285,-40.2 285,-59.2 352,-59.2 352,-40.2 285,-40.2"/>
<text text-anchor="start" x="333.4053" y="-46.3" font-family="Helvetica,sans-Serif" font-size="11.00" fill="#000000">0 &gt;</text>
<polygon fill="none" stroke="#000000" stroke-width="2" points="169,-39.2 169,-237.2 353,-237.2 353,-39.2 169,-39.2"/>
</a>
</g>
</g>
<!-- customers -->
<g id="node2" class="node">
<title>customers</title>
<g id="a_node2"><a xlink:href="../../tables/customers.html" xlink:title="customers" target="_top">
<polygon fill="#ffffff" stroke="transparent" points="8,-131.7 8,-214.7 119,-214.7 119,-131.7 8,-131.7"/>
<polygon fill="#f5f5f5" stroke="transparent" points="8.5,-191.2 8.5,-214.2 119.5,-214.2 119.5,-191.2 8.5,-191.2"/>
<polygon fill="none" stroke="#000000" points="8.5,-191.2 8.5,-214.2 119.5,-214.2 119.5,-191.2 8.5,-191.2"/>
<text text-anchor="start" x="13.5" y="-200.3" font-family="Helvetica,sans-Serif" font-weight="bold" font-size="11.00" fill="#000000">customers</text>
<text text-anchor="start" x="84.5437" y="-199.3" font-family="Helvetica,sans-Serif" font-size="11.00" fill="#000000">[table]</text>
<polygon fill="none" stroke="#000000" points="8.5,-169.2 8.5,-191.2 119.5,-191.2 119.5,-169.2 8.5,-169.2"/>
<image xlink:href="../../images/primaryKeys.png" width="11px" height="12px" preserveAspectRatio="xMinYMin meet" x="13.5" y="-186.2"/>
<text text-anchor="start" x="28.5" y="-176.3" font-family="Helvetica,sans-Serif" font-size="11.00" fill="#000000">user_id</text>
<polygon fill="none" stroke="#000000" points="8.5,-150.2 8.5,-169.2 119.5,-169.2 119.5,-150.2 8.5,-150.2"/>
<text text-anchor="start" x="11.5" y="-156.3" font-family="Helvetica,sans-Serif" font-size="11.00" fill="#000000">...</text>
<polygon fill="#ffffff" stroke="transparent" points="8.5,-131.2 8.5,-150.2 34.5,-150.2 34.5,-131.2 8.5,-131.2"/>
<polygon fill="none" stroke="#000000" points="8.5,-131.2 8.5,-150.2 34.5,-150.2 34.5,-131.2 8.5,-131.2"/>
<text text-anchor="start" x="11.5" y="-137.3" font-family="Helvetica,sans-Serif" font-size="11.00" fill="#000000"> &#160;</text>
<polygon fill="#ffffff" stroke="transparent" points="34.5,-131.2 34.5,-150.2 91.5,-150.2 91.5,-131.2 34.5,-131.2"/>
<polygon fill="none" stroke="#000000" points="34.5,-131.2 34.5,-150.2 91.5,-150.2 91.5,-131.2 34.5,-131.2"/>
<text text-anchor="start" x="43.8807" y="-137.3" font-family="Helvetica,sans-Serif" font-size="11.00" fill="#000000">497 rows</text>
<polygon fill="#ffffff" stroke="transparent" points="91.5,-131.2 91.5,-150.2 119.5,-150.2 119.5,-131.2 91.5,-131.2"/>
<polygon fill="none" stroke="#000000" points="91.5,-131.2 91.5,-150.2 119.5,-150.2 119.5,-131.2 91.5,-131.2"/>
<text text-anchor="start" x="100.9053" y="-137.3" font-family="Helvetica,sans-Serif" font-size="11.00" fill="#000000">2 &gt;</text>
</a>
</g>
</g>
<!-- web_log&#45;&gt;customers -->
<g id="edge1" class="edge">
<title>web_log:w&#45;&gt;customers:e</title>
<path fill="none" stroke="#000000" stroke-dasharray="5,2" d="M155.4203,-180.2C143.5435,-180.2 136.158,-180.2 119.5,-180.2"/>
<polygon fill="#000000" stroke="#000000" points="162,-180.2001 170,-183.8 166,-180.2 170,-180.2 170,-180.2 170,-180.2 166,-180.2 170,-176.6 162,-180.2001 162,-180.2001"/>
<ellipse fill="none" stroke="#000000" cx="158.8" cy="-180.2001" rx="3.2" ry="3.2"/>
</g>
</g>
</svg>
